<?xml version="1.0" encoding="UTF-8"?>
<svg version="1.1" xmlns="http://www.w3.org/2000/svg" width="1139" height="328">
<path d="M0 0 C5.00522366 2.76319813 7.6693738 6.66031071 10.8125 11.375 C11.77285156 11.08625 12.73320312 10.7975 13.72265625 10.5 C36.32124913 4.18688495 60.5120818 5.71915488 81.18359375 17.17578125 C96.13983972 25.97703216 104.18412481 38.03288801 111.23046875 53.484375 C112.6466224 56.43773043 112.6466224 56.43773043 115 58.390625 C116.8125 60.375 116.8125 60.375 117.0625 63.109375 C116.98 64.10453125 116.8975 65.0996875 116.8125 66.125 C116.65287731 70.25024898 116.68746871 72.87364544 118.8125 76.4375 C121.60075227 81.24448688 121.74735323 85.95442246 120.8125 91.375 C119.22093667 95.05145256 117.48341668 98.53954166 113.8125 100.375 C113.79791748 101.23254883 113.78333496 102.09009766 113.76831055 102.97363281 C113.70714522 106.16460413 113.63297238 109.35493587 113.55004883 112.54541016 C113.51685807 113.92452667 113.48880783 115.30377711 113.46606445 116.68310547 C113.43241358 118.66922306 113.37855271 120.65496559 113.32421875 122.640625 C113.29803467 123.83461914 113.27185059 125.02861328 113.24487305 126.25878906 C112.76602116 129.70998358 112.48840698 131.13548102 109.8125 133.375 C107.16675984 133.8392554 104.91444527 134.0501743 102.2578125 134.08984375 C101.14996902 134.12532066 101.14996902 134.12532066 100.01974487 134.16151428 C98.45823324 134.20675264 96.89641432 134.24227893 95.33447266 134.26879883 C92.95192648 134.31223698 90.57277304 134.39302687 88.19140625 134.47851562 C86.67193149 134.51787024 85.15239855 134.55505077 83.6328125 134.58984375 C82.92432159 134.61465317 82.21583069 134.63946259 81.48587036 134.6650238 C77.06735169 134.71336058 74.31919734 134.10018356 70.8125 131.375 C69.45549353 128.66098706 69.7001139 126.52653684 69.71484375 123.4921875 C69.71806641 122.32558594 69.72128906 121.15898437 69.72460938 119.95703125 C69.73298828 118.73371094 69.74136719 117.51039063 69.75 116.25 C69.75451172 115.01894531 69.75902344 113.78789062 69.76367188 112.51953125 C69.7754867 109.47130608 69.79195972 106.42317686 69.8125 103.375 C69.14428223 103.26687988 68.47606445 103.15875977 67.78759766 103.04736328 C58.98363357 101.48374341 58.98363357 101.48374341 55.1875 98.25 C54.53523437 97.71117188 53.88296875 97.17234375 53.2109375 96.6171875 C52.74945313 96.20726563 52.28796875 95.79734375 51.8125 95.375 C52.1425 93.725 52.4725 92.075 52.8125 90.375 C54.4375 89.5625 54.4375 89.5625 56.8125 89.375 C58.86977132 90.9704349 60.87124656 92.64026288 62.8125 94.375 C69.39018913 96.56756304 78.06090674 96.65502642 84.4375 93.75 C88.02795396 91.60805536 89.82983115 89.00989289 91.8125 85.375 C91.090625 84.7975 90.36875 84.22 89.625 83.625 C88.696875 82.8825 87.76875 82.14 86.8125 81.375 C85.94625 80.75625 85.08 80.1375 84.1875 79.5 C80.14068895 75.87916906 78.64506193 72.22295539 78.3125 66.875 C78.42993623 63.55882453 78.96107472 61.56816385 81 58.9375 C85.72412938 54.63329323 89.83560569 54.10267632 96.125 53.75 C97.37925781 53.67523438 98.63351563 53.60046875 99.92578125 53.5234375 C100.87839844 53.47445312 101.83101562 53.42546875 102.8125 53.375 C93.78367714 34.7508399 80.15399715 24.05806659 60.8359375 17.33984375 C45.5778821 13.0120312 26.63271781 13.57494094 11.8125 19.375 C11.28140625 19.93574219 10.7503125 20.49648438 10.203125 21.07421875 C9.74421875 21.50347656 9.2853125 21.93273437 8.8125 22.375 C6.125 22.0625 6.125 22.0625 3.8125 21.375 C3.71453125 20.69953125 3.6165625 20.0240625 3.515625 19.328125 C2.45141862 12.39642581 2.45141862 12.39642581 -2.1875 7.375 C-5.73751512 5.59999244 -9.67312075 5.9543391 -13.4375 7 C-16.53762997 9.4358164 -17.90441292 12.45459849 -18.4765625 16.3359375 C-18.71691326 22.03880552 -17.09502686 26.05871738 -13.4375 30.5 C-12.1875 32.375 -12.1875 32.375 -12.3125 34.5625 C-12.60125 35.160625 -12.89 35.75875 -13.1875 36.375 C-14.6725 36.87 -14.6725 36.87 -16.1875 37.375 C-19.375 35.4375 -19.375 35.4375 -22.1875 33.375 C-46.97442911 49.5040833 -70.9666463 68.92685221 -89.1875 92.375 C-89.62352539 92.93461426 -90.05955078 93.49422852 -90.50878906 94.07080078 C-97.26489652 102.80764337 -103.06497701 111.80781011 -108.22802734 121.5703125 C-109.07459014 123.16262603 -109.95109143 124.73894479 -110.83203125 126.3125 C-127.31423078 156.92851179 -131.13816505 195.02751764 -121.28857422 228.28491211 C-113.96587771 251.25513259 -98.71252715 273.33687781 -77.2890625 284.87890625 C-72.08290235 287.39019005 -67.56061979 287.51457216 -61.83886719 287.48852539 C-60.99947601 287.48867142 -60.16008484 287.48881744 -59.29525757 287.4889679 C-56.52493696 287.48827207 -53.75468385 287.48049507 -50.984375 287.47265625 C-49.06195106 287.4707909 -47.13952664 287.46936755 -45.21710205 287.46836853 C-40.16022425 287.46455257 -35.10337523 287.45473012 -30.04650879 287.44366455 C-24.88517649 287.43343065 -19.72383953 287.42886667 -14.5625 287.42382812 C-4.43748533 287.41310705 5.68750044 287.39551768 15.8125 287.375 C10.3675 280.445 10.3675 280.445 4.8125 273.375 C3.471875 274.261875 2.13125 275.14875 0.75 276.0625 C-0.06984375 276.60390625 -0.8896875 277.1453125 -1.734375 277.703125 C-3.88921266 279.17170863 -5.93896043 280.71743459 -8 282.3125 C-11.1875 284.375 -11.1875 284.375 -13.38671875 284.00390625 C-13.98097656 283.79636719 -14.57523437 283.58882813 -15.1875 283.375 C-15.625 281.23828125 -15.625 281.23828125 -15.1875 278.375 C-13.11502698 276.09512547 -10.67754572 274.36273575 -8.1875 272.5625 C-7.51976562 272.06041016 -6.85203125 271.55832031 -6.1640625 271.04101562 C-4.51577245 269.80479809 -2.8529624 268.58798346 -1.1875 267.375 C-3.50121178 263.2318417 -6.30883275 259.66229407 -9.375 256.0625 C-9.83841797 255.51271484 -10.30183594 254.96292969 -10.77929688 254.39648438 C-11.91221863 253.05332972 -13.0494226 251.71378899 -14.1875 250.375 C-19.91323085 254.63419489 -25.56503339 258.98064897 -31.1875 263.375 C-33.44855049 265.14216916 -35.7109546 266.90728427 -37.98046875 268.66357422 C-39.46907307 269.81790124 -40.9507369 270.98122721 -42.42578125 272.15283203 C-43.13089844 272.70310059 -43.83601563 273.25336914 -44.5625 273.8203125 C-45.18898438 274.31547363 -45.81546875 274.81063477 -46.4609375 275.32080078 C-48.1875 276.375 -48.1875 276.375 -51.1875 276.25 C-51.8475 275.96125 -52.5075 275.6725 -53.1875 275.375 C-53.5390625 273.1640625 -53.5390625 273.1640625 -53.1875 270.375 C-51.33069866 268.56754886 -49.66684643 267.20977994 -47.5625 265.75 C-46.35467703 264.86827101 -45.14767167 263.98542113 -43.94140625 263.1015625 C-43.31637207 262.65071289 -42.69133789 262.19986328 -42.04736328 261.73535156 C-39.13811446 259.60745258 -36.32219654 257.36628861 -33.5 255.125 C-32.3208229 254.19596639 -31.14112008 253.26759973 -29.9609375 252.33984375 C-29.35088867 251.86015137 -28.74083984 251.38045898 -28.11230469 250.88623047 C-21.49195927 245.68836921 -14.84432424 240.52601932 -8.1875 235.375 C-6.92728027 234.39708496 -6.92728027 234.39708496 -5.64160156 233.39941406 C3.77259875 226.10473352 13.24416028 218.93242522 23.0625 212.1875 C24.18676392 211.41297485 24.18676392 211.41297485 25.33374023 210.62280273 C38.98322216 201.375 38.98322216 201.375 42.8125 201.375 C43.26225427 187.01617835 43.03325546 176.44748509 32.8125 165.375 C25.06513916 157.18067604 14.11274042 152.91160426 2.97265625 152.19140625 C-11.92527917 151.865454 -25.15566259 155.58136245 -36.375 165.75 C-37.16261719 166.51054687 -37.95023437 167.27109375 -38.76171875 168.0546875 C-41.30027994 170.48287646 -43.94864786 172.67625717 -46.6875 174.875 C-51.32598062 178.60023869 -55.64653045 182.56318196 -59.8984375 186.72265625 C-62.57627707 188.65563601 -63.95804109 188.73446274 -67.1875 188.375 C-68.046875 186.234375 -68.046875 186.234375 -68.1875 183.375 C-66.3210676 181.16247418 -64.6218728 179.47276059 -62.4375 177.625 C-61.84420898 177.10131836 -61.25091797 176.57763672 -60.63964844 176.03808594 C-56.09985387 172.06121619 -51.44178611 168.22266116 -46.72265625 164.4609375 C-44.32334941 162.48677748 -42.11368249 160.40210361 -39.875 158.25 C-33.91153433 152.86991684 -25.31113248 147.375 -17.1875 147.375 C-17.826875 146.3025 -18.46625 145.23 -19.125 144.125 C-22.31523845 138.77363227 -22.80606529 133.51941525 -22.1875 127.375 C-21.39652885 124.85492912 -20.39518093 122.74004182 -19.1875 120.375 C-17.5375 120.705 -15.8875 121.035 -14.1875 121.375 C-13.1875 124.375 -13.1875 124.375 -14.1875 127.375 C-14.74966437 132.21329988 -14.64471862 135.52152524 -12.3125 139.875 C-10.18067412 142.38303044 -9.40874215 143.23090818 -6.20727539 143.60864258 C-5.40797607 143.66173584 -4.60867676 143.7148291 -3.78515625 143.76953125 C12.91343085 145.01580789 27.37502913 148.22019892 39.8125 160.375 C46.774397 169.313516 50.6449794 178.36182508 51.375 189.625 C51.45878906 190.88828125 51.54257813 192.1515625 51.62890625 193.453125 C51.68949219 194.41734375 51.75007812 195.3815625 51.8125 196.375 C52.81925781 196.08625 53.82601562 195.7975 54.86328125 195.5 C74.74632335 190.11805194 94.61895391 190.65336694 113.05859375 200.61328125 C122.67475872 206.76489884 129.99365222 214.72884073 133.3046875 225.765625 C135.38332284 236.44661274 134.26890677 246.71697938 128.17578125 255.8203125 C121.82321501 263.5831734 113.41299355 268.99929357 105.24707031 274.67089844 C100.47946097 278.00803374 95.79363328 281.45947451 91.09008789 284.88598633 C89.73947171 285.86402959 88.38143556 286.83194566 87.01463509 287.78724098 C84.82776427 289.3217389 84.82776427 289.3217389 82.94260979 290.9516201 C76.15196767 296.28521667 69.72750794 296.21881637 61.37939453 296.11962891 C59.93779452 296.12449323 58.49620128 296.1319401 57.05462646 296.14175415 C53.16161815 296.16046842 49.26962475 296.14180978 45.37669611 296.11508989 C41.28725327 296.09233762 37.19785594 296.10068559 33.10836792 296.10458374 C26.24053521 296.10634624 19.37309857 296.084264 12.50537109 296.04736328 C4.58850381 296.0050664 -3.32778298 295.99800294 -11.24474037 296.0104872 C-18.88702413 296.02191719 -26.52910544 296.01053107 -34.17136002 295.98814011 C-37.41113186 295.97890088 -40.6507788 295.97707737 -43.89056015 295.9813118 C-47.7141258 295.98510753 -51.53710936 295.96864407 -55.3605423 295.93719101 C-56.75560471 295.92877867 -58.1507266 295.92695421 -59.54580307 295.93257141 C-73.8192744 295.98128136 -83.16729701 292.28985078 -94.1875 283.375 C-94.94804688 282.77945312 -95.70859375 282.18390625 -96.4921875 281.5703125 C-118.52566334 263.30056207 -130.63712117 235.23408028 -134.1875 207.375 C-136.54446968 165.49254379 -126.38106836 126.77291145 -100.1875 93.375 C-99.50042969 92.47910156 -98.81335938 91.58320312 -98.10546875 90.66015625 C-94.02873775 85.44161893 -89.67802761 80.50745 -85.2109375 75.62109375 C-83.61338072 73.84774404 -82.10366508 72.05816018 -80.625 70.1875 C-78.10671983 67.28179211 -75.44752893 64.88619093 -72.5234375 62.40234375 C-69.85980037 60.09059179 -67.31486524 57.67081117 -64.75 55.25 C-54.04646582 45.32496758 -42.25004231 36.74943384 -29.84765625 29.08203125 C-27.1632554 27.49290723 -27.1632554 27.49290723 -25.1875 25.375 C-25.6825 23.89 -25.6825 23.89 -26.1875 22.375 C-26.58487048 16.51378542 -26.28824835 11.49531471 -23.1875 6.375 C-16.62942427 -0.70225673 -9.3352183 -4.26096138 0 0 Z M85.8125 64.375 C85.06752807 68.56546708 85.60121565 70.06109182 88 73.625 C90.74400916 76.30803118 92.10853567 77.58129336 95.8125 78.375 C99.65106267 78.23790848 102.18763843 77.71583359 105.5625 75.875 C108.65734075 72.43628806 109.65149629 68.79247752 110.8125 64.375 C109.19547003 62.43340718 108.29803309 61.46752129 105.77539062 60.98681641 C104.63360352 60.98174072 104.63360352 60.98174072 103.46875 60.9765625 C102.63472656 60.97269531 101.80070313 60.96882813 100.94140625 60.96484375 C100.07386719 60.97644531 99.20632813 60.98804688 98.3125 61 C97.01119141 60.98259766 97.01119141 60.98259766 95.68359375 60.96484375 C94.84957031 60.96871094 94.01554688 60.97257812 93.15625 60.9765625 C92.39505859 60.97994629 91.63386719 60.98333008 90.84960938 60.98681641 C88.2726408 61.47787346 87.38897522 62.30908422 85.8125 64.375 Z M108.5625 80.25 C105.8125 82.375 105.8125 82.375 102.625 83.3125 C99.62236141 84.10340315 99.62236141 84.10340315 98.4375 86.8125 C97.69402191 89.42115709 97.69402191 89.42115709 97.8125 92.375 C100.67434471 94.71650931 102.70026328 95.35924748 106.375 95.875 C109.87283874 95.66054717 109.87283874 95.66054717 112.25 93.4375 C114.33802938 89.34496242 114.3281208 85.88879517 113.8125 81.375 C113.4825 80.385 113.1525 79.395 112.8125 78.375 C110.58043316 78.1616052 110.58043316 78.1616052 108.5625 80.25 Z M94.8125 98.375 C94.78784119 102.34430989 94.76965977 106.31359034 94.75756836 110.28295898 C94.75252943 111.63420386 94.74569823 112.98544326 94.73706055 114.33666992 C94.72497581 116.27520434 94.71980172 118.213778 94.71484375 120.15234375 C94.70960693 121.32015381 94.70437012 122.48796387 94.69897461 123.69116211 C94.50588505 126.29391551 94.50588505 126.29391551 95.8125 127.375 C99.4425 127.375 103.0725 127.375 106.8125 127.375 C106.8125 118.795 106.8125 110.215 106.8125 101.375 C102.3575 100.385 102.3575 100.385 97.8125 99.375 C96.8225 99.045 95.8325 98.715 94.8125 98.375 Z M76.8125 103.375 C76.8125 111.295 76.8125 119.215 76.8125 127.375 C80.7725 127.375 84.7325 127.375 88.8125 127.375 C88.8125 118.135 88.8125 108.895 88.8125 99.375 C84.59612979 99.375 80.775017 101.93408473 76.8125 103.375 Z M19.8125 223.375 C18.15302073 224.58816616 16.49284541 225.80038068 14.83203125 227.01171875 C7.0697522 232.68975825 -0.6200358 238.43887893 -8.1875 244.375 C-7.01095954 247.5948791 -5.83501405 250.11797802 -3.5859375 252.70703125 C-3.09609375 253.27744141 -2.60625 253.84785156 -2.1015625 254.43554688 C-1.59367188 255.01369141 -1.08578125 255.59183594 -0.5625 256.1875 C-0.046875 256.78498047 0.46875 257.38246094 1 257.99804688 C2.26496272 259.46212409 3.53793834 260.91927155 4.8125 262.375 C8.59509667 261.02680601 11.48563503 259.32706495 14.67578125 256.8984375 C15.56201172 256.228125 16.44824219 255.5578125 17.36132812 254.8671875 C18.27333984 254.16851562 19.18535156 253.46984375 20.125 252.75 C21.52202148 251.69039062 21.52202148 251.69039062 22.94726562 250.609375 C25.23955677 248.8695848 27.52775436 247.12468012 29.8125 245.375 C28.03344342 240.63475376 25.73824054 237.9785417 22.17578125 234.4375 C20.8125 232.375 20.8125 232.375 21.10546875 229.625 C21.33878906 228.8825 21.57210937 228.14 21.8125 227.375 C25.02126383 227.66006102 25.86094074 228.42881372 28.06640625 230.87890625 C28.82824219 231.88824219 29.59007812 232.89757812 30.375 233.9375 C32.58397225 236.94961994 32.58397225 236.94961994 34.8125 239.375 C39.94496352 239.375 43.49188997 235.53852902 47.5 232.5625 C48.39267578 231.91990234 49.28535156 231.27730469 50.20507812 230.61523438 C51.04876953 229.99326172 51.89246094 229.37128906 52.76171875 228.73046875 C53.53862061 228.15965576 54.31552246 227.58884277 55.1159668 227.00073242 C55.95575073 226.19599487 55.95575073 226.19599487 56.8125 225.375 C57.13655931 222.11288327 57.13655931 222.11288327 54.3125 219.4375 C51.8125 216.375 51.8125 216.375 51.8125 212.375 C54.725075 212.46066397 56.38048024 212.95410955 58.48046875 215 C59.97341772 216.75891375 61.41686262 218.53813019 62.8125 220.375 C63.98044405 219.6061035 65.14669151 218.83463062 66.3125 218.0625 C67.12203125 217.52882812 67.9315625 216.99515625 68.765625 216.4453125 C71.142593 214.83019322 73.47287302 213.18087449 75.796875 211.4921875 C76.49876953 210.98985596 77.20066406 210.48752441 77.92382812 209.9699707 C79.33743615 208.95704632 80.742638 207.93227519 82.13867188 206.89526367 C87.00442189 203.43761424 87.00442189 203.43761424 90.484375 203.16796875 C93.85138281 204.91361542 95.68650493 207.58881329 97.8125 210.625 C100.89192535 214.90732588 103.98171599 218.73575519 107.8125 222.375 C108.72 221.715 109.6275 221.055 110.5625 220.375 C113.8125 218.375 113.8125 218.375 117.8125 218.375 C117.625 220.6875 117.625 220.6875 116.8125 223.375 C114.25 225.1875 114.25 225.1875 111.8125 226.375 C113.15957759 230.31207729 114.87474864 232.88593012 117.6875 235.9375 C118.36554688 236.68128906 119.04359375 237.42507813 119.7421875 238.19140625 C121.7313499 240.28940961 123.75678574 242.34233186 125.8125 244.375 C127.91729871 238.06060386 127.77158373 230.77962267 125.1875 224.625 C124.43895193 223.18508461 123.64668868 221.76705237 122.8125 220.375 C122.4 219.68664062 121.9875 218.99828125 121.5625 218.2890625 C114.60154637 207.96628467 102.90410745 202.34109142 90.9765625 199.76171875 C62.6459806 196.29909207 41.99445023 206.95434753 19.8125 223.375 Z M87.8125 210.375 C85.60197874 211.93447733 83.39408389 213.49746817 81.1875 215.0625 C80.57003906 215.49755859 79.95257813 215.93261719 79.31640625 216.38085938 C75.32492722 219.21691026 71.53647682 222.19529672 67.8125 225.375 C68.17601562 225.8596875 68.53953125 226.344375 68.9140625 226.84375 C72.546875 231.6875 76.1796875 236.53125 79.8125 241.375 C85.00281078 239.7575067 88.88022586 236.51987963 93.125 233.25 C93.86556641 232.68667969 94.60613281 232.12335938 95.36914062 231.54296875 C97.18751609 230.15865711 99.00174674 228.76925774 100.8125 227.375 C99.36869987 223.07498657 97.20417267 220.09876262 94.3125 216.625 C93.12140625 215.17867187 93.12140625 215.17867187 91.90625 213.703125 C90.03005516 211.33127859 90.03005516 211.33127859 87.8125 210.375 Z M53.5625 235.0625 C52.39782358 235.9813417 51.23246436 236.89931863 50.06640625 237.81640625 C49.50711426 238.25871582 48.94782227 238.70102539 48.37158203 239.15673828 C45.58853271 241.33140413 42.70837778 243.35462015 39.8125 245.375 C44.07156017 251.10054976 48.41530936 256.75492202 52.8125 262.375 C57.9578237 259.56725579 62.62310107 256.46880298 67.25 252.875 C68.20422852 252.16537109 68.20422852 252.16537109 69.17773438 251.44140625 C71.22696944 249.89897102 71.22696944 249.89897102 73.8125 247.375 C73.8125 242.28677397 71.67523485 240.26871212 68.5 236.625 C67.75073242 235.72201172 67.75073242 235.72201172 66.98632812 234.80078125 C65.66764937 233.26028501 64.24534608 231.80991966 62.8125 230.375 C58.677697 230.375 56.64346049 232.57933781 53.5625 235.0625 Z M99.58203125 235.4375 C98.77958984 236.06914062 97.97714844 236.70078125 97.15039062 237.3515625 C96.31701172 238.01929688 95.48363281 238.68703125 94.625 239.375 C93.78001953 240.04273438 92.93503906 240.71046875 92.06445312 241.3984375 C89.97526292 243.05090433 87.89163923 244.70991725 85.8125 246.375 C87.0162075 249.70147395 88.25039883 252.21008512 90.59765625 254.85546875 C91.12810547 255.46197266 91.65855469 256.06847656 92.20507812 256.69335938 C92.75615234 257.31017578 93.30722656 257.92699219 93.875 258.5625 C94.97176389 259.80448002 96.06689587 261.04790363 97.16015625 262.29296875 C97.64492432 262.83719482 98.12969238 263.3814209 98.62915039 263.94213867 C99.8125 265.375 99.8125 265.375 100.8125 267.375 C105.09497217 265.90807583 108.28268391 263.73397508 111.875 261 C112.89722656 260.22914063 113.91945313 259.45828125 114.97265625 258.6640625 C117.42855966 256.68447598 119.64025455 254.6566391 121.8125 252.375 C120.41883871 248.17903053 118.45409779 245.58201426 115.4375 242.375 C113.05771487 239.82807277 110.79888246 237.35677578 108.7109375 234.5625 C108.08445312 233.840625 107.45796875 233.11875 106.8125 232.375 C103.15517153 232.375 102.39590696 233.20236468 99.58203125 235.4375 Z M33.8125 249.375 C33.25304687 249.83648437 32.69359375 250.29796875 32.1171875 250.7734375 C24.9070406 256.63892678 17.41133664 262.03172582 9.8125 267.375 C11.41905532 271.06833099 13.73489605 273.86194984 16.3125 276.9375 C18.62489639 279.70411711 20.81167699 282.37376548 22.8125 285.375 C26.6538481 283.69674112 29.7917768 281.19767113 33.0625 278.625 C34.21715886 277.72619103 35.3721065 276.82775294 36.52734375 275.9296875 C37.08663574 275.49366211 37.64592773 275.05763672 38.22216797 274.60839844 C41.38667963 272.15412872 44.60132309 269.76764162 47.8125 267.375 C46.46542241 263.43792271 44.75025136 260.86406988 41.9375 257.8125 C41.25945312 257.06871094 40.58140625 256.32492187 39.8828125 255.55859375 C37.8936501 253.46059039 35.86821426 251.40766814 33.8125 249.375 Z M69.375 258.1875 C68.49005859 258.83009766 67.60511719 259.47269531 66.69335938 260.13476562 C65.42395508 261.06772461 65.42395508 261.06772461 64.12890625 262.01953125 C63.34974854 262.59034424 62.57059082 263.16115723 61.76782227 263.74926758 C59.5855167 265.40655086 59.5855167 265.40655086 57.8125 268.375 C58.534375 269.19484375 59.25625 270.0146875 60 270.859375 C60.93801525 271.94747269 61.87548707 273.03603903 62.8125 274.125 C63.28945312 274.66382813 63.76640625 275.20265625 64.2578125 275.7578125 C67.01018477 278.98202001 67.8125 279.9823433 67.8125 284.375 C65.61328125 284.75 65.61328125 284.75 62.8125 284.375 C60.94798243 282.38301938 59.50957209 280.60544928 58 278.375 C57.59330078 277.80265625 57.18660156 277.2303125 56.76757812 276.640625 C55.76775768 275.22911379 54.78811378 273.80334959 53.8125 272.375 C50.64408088 272.97481887 48.73929627 273.96498819 46.24609375 275.9921875 C45.59576172 276.51683594 44.94542969 277.04148437 44.27539062 277.58203125 C43.27282227 278.40767578 43.27282227 278.40767578 42.25 279.25 C41.57775391 279.79269531 40.90550781 280.33539063 40.21289062 280.89453125 C37.27378039 283.28201106 34.47724641 285.68309052 31.8125 288.375 C37.48221082 288.67610808 43.1470895 288.89136558 48.82299805 289.03417969 C50.74472238 289.0938078 52.66592004 289.17515283 54.58569336 289.28027344 C70.31279737 290.11861397 79.01275944 286.68905736 90.8125 276.375 C92.47477713 275.03619819 94.1394309 273.70029067 95.8125 272.375 C94.22910944 268.76791777 92.01443384 266.01732061 89.5 263 C88.69949219 262.03707031 87.89898437 261.07414062 87.07421875 260.08203125 C85.95466797 258.74205078 85.95466797 258.74205078 84.8125 257.375 C83.98685547 256.35986328 83.98685547 256.35986328 83.14453125 255.32421875 C82.05734292 253.98834805 80.93918608 252.67773078 79.8125 251.375 C76.52945342 251.375 71.9406387 256.29908573 69.375 258.1875 Z " fill="#020202" transform="translate(157.1875,22.625)"/>
<path d="M0 0 C0.92218323 -0.00807175 1.84436646 -0.01614349 2.79449463 -0.02445984 C4.75832223 -0.03833113 6.72217424 -0.04903957 8.68603516 -0.05688477 C11.64925438 -0.07390925 14.61130193 -0.11774246 17.57421875 -0.16210938 C29.73303686 -0.26193821 42.51340306 -0.29288837 52.5234375 7.75 C59.18378292 14.6833104 60.38073738 21.62200095 60.296875 30.97265625 C59.63636047 37.24754425 56.39667877 41.12658286 51.828125 45.23828125 C48.953125 47.23828125 48.953125 47.23828125 45.953125 47.23828125 C45.953125 47.89828125 45.953125 48.55828125 45.953125 49.23828125 C47.2215625 49.33109375 47.2215625 49.33109375 48.515625 49.42578125 C54.62675105 50.87022923 58.43615803 54.06131641 61.828125 59.30078125 C65.57199144 65.56122017 65.60063963 72.0886405 64.953125 79.23828125 C63.00250483 86.22446979 59.4194552 92.21268912 53.10546875 95.90234375 C46.89809466 99.08522573 41.91865035 101.36950732 34.90917969 101.35180664 C33.90844421 101.35173111 32.90770874 101.35165558 31.87664795 101.35157776 C30.80360413 101.34641647 29.7305603 101.34125519 28.625 101.3359375 C27.52085754 101.33452255 26.41671509 101.3331076 25.27911377 101.33164978 C21.75375658 101.32605383 18.22846298 101.31350204 14.703125 101.30078125 C12.31250092 101.29576573 9.92187584 101.29120291 7.53125 101.28710938 C1.67185332 101.27608572 -4.1875063 101.25935158 -10.046875 101.23828125 C-10.069996 88.21717485 -10.08778884 75.1960733 -10.09868717 62.1749506 C-10.10391653 56.12940308 -10.11101514 50.08386955 -10.12231445 44.03833008 C-10.13314145 38.20933837 -10.13915143 32.38036016 -10.14175224 26.55135918 C-10.14360683 24.32210515 -10.14722808 22.0928519 -10.15260506 19.86360359 C-10.15981299 16.75288391 -10.16086605 13.64222076 -10.16040039 10.53149414 C-10.16399567 9.60001556 -10.16759094 8.66853699 -10.17129517 7.70883179 C-10.15694785 -1.08733623 -8.01377095 0.0661695 0 0 Z M3.953125 12.23828125 C2.50488989 15.13475147 2.94792866 17.54993042 3.07421875 20.77734375 C3.12255859 22.07929687 3.17089844 23.38125 3.22070312 24.72265625 C3.27722894 26.10286929 3.33387108 27.48307757 3.390625 28.86328125 C3.44384793 30.25128344 3.49658832 31.63930422 3.54882812 33.02734375 C3.67883663 36.43120266 3.81381383 39.83479242 3.953125 43.23828125 C8.07894897 43.33797588 12.20429597 43.41013358 16.33105469 43.45800781 C17.73156973 43.47798755 19.13200282 43.50518145 20.53222656 43.54003906 C29.9786293 43.76912444 37.11100257 43.70793273 44.390625 36.98828125 C46.39944016 33.45276658 47.13701597 30.26089629 46.953125 26.23828125 C45.30447193 20.5164853 42.87385009 17.55030775 37.953125 14.23828125 C31.15277643 11.52752161 24.24147886 12.0147641 17.015625 12.11328125 C15.75943359 12.12230469 14.50324219 12.13132812 13.20898438 12.140625 C10.12349978 12.16408876 7.03841295 12.19691924 3.953125 12.23828125 Z M3.953125 55.23828125 C3.78587176 59.91947575 3.62527636 64.60083226 3.47094727 69.2824707 C3.41745706 70.87628381 3.36212245 72.4700361 3.30493164 74.0637207 C3.22321558 76.34963867 3.14805603 78.63569071 3.07421875 80.921875 C3.04718369 81.63854843 3.02014862 82.35522186 2.99229431 83.09361267 C2.94014856 84.80775892 2.94126872 86.52338301 2.953125 88.23828125 C5.69161225 90.9767685 13.63490279 89.5573379 17.57836914 89.58837891 C19.10391636 89.60480862 20.62939085 89.63192368 22.15454102 89.67041016 C31.20439923 89.89747107 39.38139946 89.95341528 46.953125 84.23828125 C50.34158386 80.55541083 51.19976411 77.13867398 51.453125 72.17578125 C51.190423 66.2061047 48.85587424 62.99466517 44.515625 58.98828125 C39.49153557 55.55719579 35.23992746 54.95407614 29.24609375 55.04296875 C28.15800163 55.04721359 28.15800163 55.04721359 27.04792786 55.05154419 C24.74532132 55.06268326 22.44311273 55.08777559 20.140625 55.11328125 C18.57357335 55.12331919 17.00651557 55.13244362 15.43945312 55.140625 C11.61052522 55.16260195 7.78189244 55.19708786 3.953125 55.23828125 Z " fill="#020202" transform="translate(472.046875,105.76171875)"/>
<path d="M0 0 C54.17217742 0 54.17217742 0 63.4140625 9.06640625 C68.20165909 14.90350061 70.33094884 21.31630918 70.21875 28.84765625 C69.62385155 34.70103207 67.15069192 39.84930808 63 44 C60.7209221 45.49810077 58.42731011 46.7396659 56 48 C56.56847656 48.1959375 57.13695312 48.391875 57.72265625 48.59375 C64.8673108 51.36096178 69.68296649 55.2752306 73.09765625 62.23828125 C75.82160453 69.57393732 75.87666687 76.34494859 73.16796875 83.6953125 C69.48269947 90.96724853 63.67547236 96.31149516 56 99 C38.04010991 104.13139717 18.67856763 101 0 101 C0 67.67 0 34.34 0 0 Z M13 13 C12.91216458 15.21855264 12.89305391 17.43988496 12.90234375 19.66015625 C12.9037587 20.32462265 12.90517365 20.98908905 12.90663147 21.6736908 C12.91224482 23.80333899 12.92479946 25.93288339 12.9375 28.0625 C12.94251329 29.50325369 12.94707649 30.94400903 12.95117188 32.38476562 C12.96221855 35.92321102 12.97949208 39.46159539 13 43 C17.3049777 43.07451364 21.60960734 43.12877223 25.91503906 43.16479492 C27.37767075 43.17982196 28.84025782 43.20024955 30.30273438 43.22631836 C32.4128728 43.26297267 34.52241226 43.27978676 36.6328125 43.29296875 C38.53377686 43.31653442 38.53377686 43.31653442 40.47314453 43.34057617 C44.95768579 42.90751961 48.33317383 41.55596838 51.64453125 38.46484375 C55.78131039 33.05520949 56.79868966 29.76604239 56 23 C53.60026516 17.91256214 50.22019763 14.98430576 45 13 C41.00176567 12.38913359 37.03984428 12.30432553 33 12.25 C31.94554687 12.22035156 30.89109375 12.19070312 29.8046875 12.16015625 C26.86962531 12.08291777 23.93581687 12.03595741 21 12 C20.24976563 11.98388672 19.49953125 11.96777344 18.7265625 11.95117188 C15.58911557 11.64072638 15.58911557 11.64072638 13 13 Z M13 55 C13 66.22 13 77.44 13 89 C18.28 89.061875 23.56 89.12375 29 89.1875 C31.475 89.22846802 31.475 89.22846802 34 89.27026367 C45.51398821 89.67886085 45.51398821 89.67886085 55.49951172 84.65356445 C58.67523688 81.12441726 60.95969568 77.71046557 61.03125 72.8984375 C60.67812552 67.61922659 59.58737998 64.05940366 56 60 C50.30759355 55.95437173 45.33673787 54.85208929 38.48828125 54.90234375 C37.84258179 54.90335083 37.19688232 54.90435791 36.53161621 54.90539551 C34.12522601 54.91061789 31.71886118 54.92457917 29.3125 54.9375 C23.929375 54.958125 18.54625 54.97875 13 55 Z " fill="#010101" transform="translate(666,106)"/>
<path d="M0 0 C0.74765625 0.28875 1.4953125 0.5775 2.265625 0.875 C10.62736449 4.56206623 17.36246559 10.86684931 21.0625 19.23046875 C23.94123937 27.73474462 25.099904 36.4109977 22 45 C21.4961377 45.63115723 20.99227539 46.26231445 20.47314453 46.91259766 C18.19026612 51.69703259 18.59932762 56.38343793 18.62890625 61.6171875 C18.61152365 63.93880356 18.59393927 66.26041811 18.57617188 68.58203125 C18.56610185 72.23131082 18.56250257 75.88049227 18.56420898 79.52978516 C18.56063331 83.05921507 18.53326814 86.58789188 18.50390625 90.1171875 C18.51208878 91.20280975 18.5202713 92.28843201 18.52870178 93.4069519 C18.46617853 99.78921752 18.03300745 103.93216628 14 109 C9.23239601 112.02418473 5.05527868 112.42697928 -0.45214844 112.37231445 C-1.27886551 112.37596512 -2.10558258 112.37961578 -2.95735168 112.38337708 C-5.67490525 112.39144744 -8.39185617 112.37790654 -11.109375 112.36328125 C-13.00172933 112.36276242 -14.89408419 112.36328101 -16.78643799 112.36479187 C-20.74393808 112.36470232 -24.70123373 112.35430375 -28.65869141 112.33618164 C-33.73879387 112.31343293 -38.81859941 112.31296337 -43.89873886 112.31969929 C-47.80198827 112.3230343 -51.70516956 112.31641906 -55.60840607 112.30657005 C-57.48235976 112.30271433 -59.35632102 112.30157137 -61.23027802 112.3031559 C-63.84214339 112.30352533 -66.4536222 112.29094299 -69.06542969 112.2746582 C-69.84362564 112.27713562 -70.62182159 112.27961304 -71.42359924 112.28216553 C-76.77125062 112.22874938 -76.77125062 112.22874938 -79 110 C-78.625 107.375 -78.625 107.375 -78 105 C-76.94177536 104.99413376 -75.88355072 104.98826752 -74.79325867 104.98222351 C-64.83121298 104.92506527 -54.86938704 104.85234005 -44.90756512 104.76428509 C-39.78580478 104.71951533 -34.66412521 104.68027388 -29.54223633 104.65356445 C-24.60135802 104.62759725 -19.66078941 104.58724187 -14.72010231 104.53681374 C-12.8330552 104.52010035 -10.94595446 104.50861401 -9.05884361 104.50238609 C-6.42000056 104.49279344 -3.78195789 104.46479311 -1.14331055 104.43237305 C0.03272987 104.43452568 0.03272987 104.43452568 1.23252869 104.4367218 C4.17349892 104.38545956 6.43616545 104.34342666 8.98590088 102.79040527 C10.34640748 100.38841306 10.37181027 98.68037696 10.36889648 95.92114258 C10.37577988 94.88609085 10.38266327 93.85103912 10.38975525 92.78462219 C10.38051781 91.10652718 10.38051781 91.10652718 10.37109375 89.39453125 C10.38848371 87.02538924 10.40606801 84.65624864 10.42382812 82.28710938 C10.4338831 78.55230001 10.43750233 74.81758598 10.43579102 71.08276367 C10.43937208 67.47806461 10.46676665 63.87409928 10.49609375 60.26953125 C10.48791122 59.16092239 10.4797287 58.05231354 10.47129822 56.91011047 C10.5365169 50.08112838 11.56720281 45.89926971 15 40 C16.26529999 32.11978609 15.34738369 24.75321738 11 18 C8.2382975 14.685957 6.33282255 12.50883681 2 12 C-8.00409724 14.55236498 -17.12318775 20.77227086 -22.5 29.6875 C-24.06983504 32.95335218 -24.06983504 32.95335218 -25 36.375 C-26 39 -26 39 -27.9375 40.0625 C-30 40 -30 40 -31.8125 38.9375 C-33 37 -33 37 -33.0625 34.4375 C-28.98192261 21.23563198 -18.86445941 12.31615271 -7 6 C-18.60981396 2.62259957 -28.24657059 3.64705447 -38.9375 9.5 C-49.53347785 16.25201112 -56.68914568 24.97274876 -61 36.7265625 C-62 39 -62 39 -63.9375 40 C-66 40 -66 40 -67.8125 38.875 C-69 37 -69 37 -68.7265625 34.734375 C-65.38300556 22.1510962 -56.89559722 11.84142151 -46 5 C-58.63421912 3.92980732 -70.77399363 7.64343798 -81 15 C-82.60875 16.1446875 -82.60875 16.1446875 -84.25 17.3125 C-90.32767326 23.25204432 -93.80121829 29.84136259 -96 38 C-98.375 38.625 -98.375 38.625 -101 39 C-101.66 38.34 -102.32 37.68 -103 37 C-103 27.4127373 -97.97215625 19.70920466 -91.4375 13 C-88.49925064 10.1507885 -85.56780096 8.00649615 -82 6 C-93.31495054 2.90623723 -105.64642771 8.64154039 -115.4765625 13.8671875 C-125.78077939 19.80886163 -130.89372192 28.71930592 -134 40 C-136.375 40.625 -136.375 40.625 -139 41 C-139.66 40.34 -140.32 39.68 -141 39 C-140.81477063 28.62715504 -135.4865303 20.66754345 -128.5078125 13.3203125 C-116.13284265 1.87057404 -99.23713257 -3.5128165 -82.51953125 -3.140625 C-77.85767377 -2.8804283 -73.20324361 -2.51242236 -68.55078125 -2.12109375 C-65.1062921 -1.88274779 -65.1062921 -1.88274779 -62.17724609 -2.48852539 C-58.9200816 -3.0128653 -55.90964458 -3.09788927 -52.61328125 -3.0625 C-51.42798828 -3.05476562 -50.24269531 -3.04703125 -49.02148438 -3.0390625 C-47.18553711 -3.01972656 -47.18553711 -3.01972656 -45.3125 -3 C-42.87113773 -2.97452935 -40.42972407 -2.95348326 -37.98828125 -2.9375 C-36.37240112 -2.92009766 -36.37240112 -2.92009766 -34.72387695 -2.90234375 C-9.5637921 -3.80438139 -9.5637921 -3.80438139 0 0 Z " fill="#020202" transform="translate(373,168)"/>
<path d="M0 0 C3.96 0 7.92 0 12 0 C13.94297324 1.94297324 13.12020298 4.88504181 13.12442017 7.47055054 C13.11902725 8.8677684 13.11902725 8.8677684 13.11352539 10.29321289 C13.11367142 11.26871597 13.11381744 12.24421906 13.1139679 13.24928284 C13.11326833 16.49042953 13.10547391 19.73151954 13.09765625 22.97265625 C13.09579222 25.21325143 13.09436825 27.45384702 13.09336853 29.69444275 C13.08954213 35.6045951 13.0797108 41.51472305 13.06866455 47.42486572 C13.05845306 53.45055817 13.05387147 59.47625453 13.04882812 65.50195312 C13.03808864 77.33464616 13.02101076 89.16732106 13 101 C8.71 101 4.42 101 0 101 C-0.495 96.545 -0.495 96.545 -1 92 C-2.4540625 93.36125 -2.4540625 93.36125 -3.9375 94.75 C-12.9082672 102.26123762 -21.66713455 102.95820679 -33 102 C-36.01675744 101.42785635 -38.3488848 100.53060028 -41 99 C-41.74636719 98.58621094 -42.49273438 98.17242187 -43.26171875 97.74609375 C-51.40736913 92.80484799 -56.32239335 86.29826704 -59.30078125 77.25 C-61.71992149 66.00572806 -60.92712879 55.04492353 -55 45 C-49.53049686 37.4268418 -41.28807329 31.64338737 -32 30 C-23.48316174 29.13204196 -15.58376516 29.79179797 -8 34 C-5.69 35.98 -3.38 37.96 -1 40 C-0.67 26.8 -0.34 13.6 0 0 Z M-42.81640625 51.16796875 C-47.41228423 58.28172048 -47.90693565 64.58739003 -47 73 C-45.07250682 80.35841737 -39.40306075 85.19293142 -33.16796875 89.16796875 C-27.45103437 91.36203546 -20.0694855 90.95229348 -14.29296875 89.16015625 C-7.7086233 85.82872422 -3.76302095 80.68631654 -0.625 74.125 C0.94232826 66.2883587 0.49177561 60.32043137 -3.453125 53.26171875 C-7.55237871 47.26811294 -12.93483967 43.64717611 -20 42 C-28.97631934 40.98654459 -37.31838886 43.76978671 -42.81640625 51.16796875 Z " fill="#020202" transform="translate(1065,106)"/>
<path d="M0 0 C6.65762152 5.44827829 10.01297538 11.36314488 12.7109375 19.45703125 C12.7109375 24.40703125 12.7109375 29.35703125 12.7109375 34.45703125 C-4.7790625 34.45703125 -22.2690625 34.45703125 -40.2890625 34.45703125 C-36.63923977 44.49404375 -34.49434291 49.54434861 -25.2265625 53.89453125 C-18.53613878 55.17567622 -13.32649597 54.45027358 -7.2890625 51.45703125 C-3.86866984 49.04720915 -1.27499474 46.44296349 1.7109375 43.45703125 C4.6809375 45.76703125 7.6509375 48.07703125 10.7109375 50.45703125 C7.69764083 57.99027291 2.70032196 61.28606302 -4.4921875 64.6953125 C-12.07290273 67.90887656 -23.42745776 67.69951421 -31.3515625 65.33203125 C-40.29173548 61.63860071 -47.63427692 54.61978209 -51.6015625 45.83203125 C-55.69046717 34.57471212 -55.02853984 23.0666037 -50.1015625 12.26953125 C-45.52356284 3.77893886 -39.24203143 -1.0596593 -30.2890625 -4.54296875 C-19.78851196 -7.16810639 -9.06673958 -6.11153948 0 0 Z M-35.9921875 13.4296875 C-38.18798492 16.80541054 -39.30136589 19.5062448 -40.2890625 23.45703125 C-27.0890625 23.45703125 -13.8890625 23.45703125 -0.2890625 23.45703125 C-3.15434654 14.86117913 -4.00879955 12.34372022 -10.9765625 7.64453125 C-19.80365533 4.48010174 -29.66348151 6.09942024 -35.9921875 13.4296875 Z " fill="#020202" transform="translate(882.2890625,141.54296875)"/>
<path d="M0 0 C6.24081888 5.04331858 9.38658226 10.67309149 10.7421875 18.5234375 C10.82437475 20.1797905 10.86008858 21.83892944 10.85571289 23.49731445 C10.85563736 24.45793289 10.85556183 25.41855133 10.85548401 26.40827942 C10.85032272 27.4324144 10.84516144 28.45654938 10.83984375 29.51171875 C10.8384288 30.57005417 10.83701385 31.62838959 10.83555603 32.71879578 C10.82996909 36.09120539 10.81741894 39.46354804 10.8046875 42.8359375 C10.79967081 45.12565008 10.7951082 47.41536371 10.79101562 49.70507812 C10.78000393 55.31122362 10.76274822 60.91731922 10.7421875 66.5234375 C6.7821875 66.5234375 2.8221875 66.5234375 -1.2578125 66.5234375 C-1.7528125 62.5634375 -1.7528125 62.5634375 -2.2578125 58.5234375 C-2.68191406 58.92175781 -3.10601563 59.32007813 -3.54296875 59.73046875 C-4.12949219 60.26027344 -4.71601562 60.79007812 -5.3203125 61.3359375 C-5.88878906 61.85800781 -6.45726562 62.38007813 -7.04296875 62.91796875 C-12.4615301 66.84570899 -17.67732632 68.01189416 -24.2578125 67.8984375 C-25.26714844 67.91583984 -25.26714844 67.91583984 -26.296875 67.93359375 C-33.69743311 67.89073337 -39.3293619 65.19200704 -44.74609375 60.25 C-48.82635682 55.58985458 -49.85194982 49.81536604 -49.6015625 43.75390625 C-48.61895124 37.37809913 -45.24337399 32.7167028 -40.25 28.7734375 C-32.19154506 23.71715204 -22.74181642 23.3562731 -13.5078125 23.3984375 C-12.64542969 23.39457031 -11.78304687 23.39070313 -10.89453125 23.38671875 C-9.65896484 23.38865234 -9.65896484 23.38865234 -8.3984375 23.390625 C-7.27743652 23.39231689 -7.27743652 23.39231689 -6.13378906 23.39404297 C-4.2578125 23.5234375 -4.2578125 23.5234375 -2.2578125 24.5234375 C-3.17719673 18.97084067 -3.94346659 14.47825459 -8.2578125 10.5234375 C-13.27865472 8.01301639 -18.76085504 7.71978875 -24.2578125 8.5234375 C-29.25148073 10.33678071 -33.27166029 12.04420919 -36.2578125 16.5234375 C-40.19920328 14.85592602 -43.0470937 12.29633101 -46.2578125 9.5234375 C-43.73603109 3.57830515 -38.47235115 -0.1043863 -32.640625 -2.59375 C-22.02905038 -5.82335967 -9.58104419 -6.26580399 0 0 Z M-34.1953125 39.3984375 C-36.26580855 43.53942959 -36.52530968 45.61080007 -35.1953125 50.1484375 C-32.86705628 54.20410962 -31.70298106 55.14947631 -27.2578125 56.5234375 C-19.3832572 57.44603391 -14.16170336 56.00773168 -7.5078125 51.7734375 C-4.25226264 48.51788764 -2.39804963 45.0825437 -2.1418457 40.40722656 C-2.16251099 39.35873535 -2.16251099 39.35873535 -2.18359375 38.2890625 C-2.20808594 37.04640625 -2.23257813 35.80375 -2.2578125 34.5234375 C-5.75765053 34.43539978 -9.25719888 34.38270142 -12.7578125 34.3359375 C-13.74007812 34.31080078 -14.72234375 34.28566406 -15.734375 34.25976562 C-22.49519532 34.19215742 -29.05990948 34.42869264 -34.1953125 39.3984375 Z " fill="#010101" transform="translate(967.2578125,140.4765625)"/>
<path d="M0 0 C25.41 0 50.82 0 77 0 C77 3.96 77 7.92 77 12 C67.45478596 16.77260702 55.67187373 13 45 13 C45 42.04 45 71.08 45 101 C40.71 101 36.42 101 32 101 C32 71.96 32 42.92 32 13 C21.44 13 10.88 13 0 13 C0 8.71 0 4.42 0 0 Z " fill="#010101" transform="translate(558,106)"/>
<path d="M0 0 C-2.75118973 2.85215083 -5.60315225 5.34358701 -8.75 7.75 C-9.54921875 8.36359375 -10.3484375 8.9771875 -11.171875 9.609375 C-11.77515625 10.06828125 -12.3784375 10.5271875 -13 11 C-12.34 11 -11.68 11 -11 11 C-9.68708984 11.13921875 -9.68708984 11.13921875 -8.34765625 11.28125 C-0.00334738 11.8368758 4.26426306 10.31209205 10.66015625 4.9453125 C13.85648584 2.28792997 15.81456933 1 20 1 C18.64931683 5.05204951 16.60422271 5.87548363 13.0625 8.1875 C11.98097656 8.90292969 10.89945313 9.61835938 9.78515625 10.35546875 C7 12 7 12 5 12 C5 12.66 5 13.32 5 14 C6.98 14.66 8.96 15.32 11 16 C11 16.99 11 17.98 11 19 C14.96 19 18.92 19 23 19 C23 19.99 23 20.98 23 22 C21.15535156 22.14695312 21.15535156 22.14695312 19.2734375 22.296875 C17.64054288 22.44702623 16.00773452 22.59811772 14.375 22.75 C13.56675781 22.811875 12.75851562 22.87375 11.92578125 22.9375 C6.55800285 23.4611857 3.38602946 24.65450005 -1 28 C-1.99 28.33 -2.98 28.66 -4 29 C2.93 32.465 2.93 32.465 10 36 C9.67 36.99 9.34 37.98 9 39 C3.03729368 37.40994498 -1.0734397 35.35797766 -6.0625 31.6875 C-9.95857761 28.8185914 -9.95857761 28.8185914 -14.54296875 27.92578125 C-16.98225331 28.49093685 -16.98225331 28.49093685 -20 30 C-14.50650211 33.81492909 -9.04907673 37.14043646 -3 40 C-3.33 40.99 -3.66 41.98 -4 43 C-5.24716797 42.47599609 -5.24716797 42.47599609 -6.51953125 41.94140625 C-7.60621094 41.48636719 -8.69289063 41.03132813 -9.8125 40.5625 C-11.43091797 39.88380859 -11.43091797 39.88380859 -13.08203125 39.19140625 C-15.0295126 38.39624987 -17.00438943 37.66520352 -19 37 C-18.505 39.97 -18.505 39.97 -18 43 C-24.81987029 42.56699236 -29.91643021 41.09212176 -36 38 C-35.505 40.475 -35.505 40.475 -35 43 C-39.89100594 44.63033531 -44.24681814 42.64585751 -49 41 C-53.87382792 38.42514751 -58.11903498 34.74843094 -61 30 C-61.495 27.03 -61.495 27.03 -62 24 C-88.07 24 -114.14 24 -141 24 C-141 22.68 -141 21.36 -141 20 C-115.26 20 -89.52 20 -63 20 C-62.01 17.36 -61.02 14.72 -60 12 C-54.85143434 5.67621826 -48.10215839 2.25464747 -40.0625 1.3125 C-38.709229 1.19727993 -37.35524008 1.0891201 -36 1 C-36.33 2.65 -36.66 4.3 -37 6 C-35.3603125 5.071875 -35.3603125 5.071875 -33.6875 4.125 C-28.66799057 1.58370438 -23.52968925 0.77253012 -18 0 C-18.78224743 4.3972938 -20.17154259 7.94559445 -22 12 C-18.10208551 12.46156867 -18.10208551 12.46156867 -16.359375 10.42578125 C-15.82828125 9.72839844 -15.2971875 9.03101563 -14.75 8.3125 C-11.05379181 3.83562715 -6.13715154 -2.04571718 0 0 Z M-35.81640625 9.6484375 C-38.75782269 12.89462721 -40.72548923 15.47057234 -41 20 C-35.18632677 19.79601147 -31.82165961 18.91276988 -27.54296875 14.8984375 C-24.88891542 11.63294404 -23.40782068 7.93490252 -22 4 C-27.6092852 4 -31.6501372 5.86743634 -35.81640625 9.6484375 Z M-41 4 C-48.28799178 6.08784106 -54.15185661 8.11774356 -58 15 C-58.95167379 18.26139352 -58.95167379 18.26139352 -59 21 C-52.22418879 20.10280761 -47.68382272 19.14078103 -43 14 C-41.58946563 11.6404664 -40.83986409 9.66780358 -40 7 C-40.33 6.01 -40.66 5.02 -41 4 Z M-10 14 C-10.33 14.66 -10.66 15.32 -11 16 C-9.68 16.99 -8.36 17.98 -7 19 C-8 21 -9 23 -10 25 C-2.55716899 25.8119452 1.18448392 23.52317917 7 19 C3.87120152 15.73711015 1.32757215 14.12126846 -3.32421875 13.87890625 C-5.55331407 13.87540689 -7.77275591 13.91265709 -10 14 Z M-31 21 C-27.636829 24.4752767 -26.23520126 25.87438631 -21.3125 26.375 C-16.27027915 26.33812818 -13.72712046 24.2612304 -10 21 C-10 20.34 -10 19.68 -10 19 C-18.54589721 14.81425443 -23.55607487 14.92332643 -31 21 Z M-45 19 C-45.33 19.66 -45.66 20.32 -46 21 C-45.34 21 -44.68 21 -44 21 C-44.33 20.34 -44.66 19.68 -45 19 Z M-59 24 C-58.72971883 28.45963934 -56.85165722 31.13253678 -53.953125 34.34765625 C-50.49265498 37.27521389 -46.39632412 38.97091208 -42 40 C-41.01 39.67 -40.02 39.34 -39 39 C-42.62460417 30.35762302 -42.62460417 30.35762302 -50 25 C-52.99872229 24.43466711 -55.95308347 24.13541851 -59 24 Z M-41 24 C-40.58188612 28.87799527 -38.63597431 30.84882227 -35 34 C-30.67521506 37.3846143 -27.47534973 38.56197202 -22 39 C-23.95435307 32.7026401 -25.96973926 29.29668105 -31 25 C-34.47325181 23.8422494 -37.36067448 23.93133348 -41 24 Z " fill="#060606" transform="translate(1077,248)"/>
<path d="M0 0 C5.87495657 1.65233154 11.06158762 6.18879461 14.4921875 11.1640625 C16.24951614 13.30381499 17.30607823 13.62842458 20 14 C19.71125 13.31292969 19.4225 12.62585938 19.125 11.91796875 C18.75375 11.01691406 18.3825 10.11585938 18 9.1875 C17.62875 8.29417969 17.2575 7.40085938 16.875 6.48046875 C16 4 16 4 16 1 C22.42590164 1.9877064 28.14202052 3.13609892 34 6 C33.505 4.02 33.505 4.02 33 2 C41.82178208 2.42686042 49.40796473 4.79708037 55.5625 11.4375 C58.38743 14.75859335 58.18609058 16.11654348 59 21 C79.79 21 100.58 21 122 21 C122.33 22.32 122.66 23.64 123 25 C101.88 25 80.76 25 59 25 C58.67 26.98 58.34 28.96 58 31 C53.8032354 37.83646872 47.94468005 41.76913544 40.26953125 43.6796875 C37.8516886 44.17757894 35.43887385 44.62017538 33 45 C33 43.02 33 41.04 33 39 C32.443125 39.27714844 31.88625 39.55429687 31.3125 39.83984375 C26.10180741 42.31316236 21.75283447 43.58161204 16 44 C16.33 41.69 16.66 39.38 17 37 C16.18015625 37.44472656 15.3603125 37.88945312 14.515625 38.34765625 C13.43796875 38.91355469 12.3603125 39.47945313 11.25 40.0625 C10.18265625 40.63097656 9.1153125 41.19945312 8.015625 41.78515625 C4.97406463 43.01044806 3.95106435 43.25348607 1 42 C3.57463698 38.99476172 6.51823973 37.62134662 10.0625 35.9375 C14.36642974 33.94436339 14.36642974 33.94436339 18 31 C15.16497662 29.98860307 12.9612519 29.23609366 10 29 C7.23447989 30.33621764 5.30549684 31.47549226 2.9375 33.3125 C-1.7914764 36.86056216 -5.0286119 38.59683622 -11 39 C-11 38.01 -11 37.02 -11 36 C-10.09507812 35.60167969 -10.09507812 35.60167969 -9.171875 35.1953125 C-8.37265625 34.84210938 -7.5734375 34.48890625 -6.75 34.125 C-5.96109375 33.77695312 -5.1721875 33.42890625 -4.359375 33.0703125 C-2.21131392 32.09586095 -0.10170798 31.07013571 2 30 C-6.05767269 23.82716302 -15.25337696 23.70444848 -25 23 C-25 22.01 -25 21.02 -25 20 C-20.71 20 -16.42 20 -12 20 C-12 19.01 -12 18.02 -12 17 C-9.5 15.3125 -9.5 15.3125 -7 14 C-8.010625 13.30132812 -9.02125 12.60265625 -10.0625 11.8828125 C-11.37524473 10.96389119 -12.68773151 10.04460128 -14 9.125 C-14.66773438 8.66480469 -15.33546875 8.20460937 -16.0234375 7.73046875 C-17.71859351 6.53694054 -19.3637578 5.27309661 -21 4 C-21 3.34 -21 2.68 -21 2 C-16.20599306 2.4846882 -13.7073577 4.60124803 -10 7.5625 C-3.5123588 12.4553295 1.88878817 13.07529977 10 12 C6.50640535 8.40365256 2.88901869 5.16548033 -1 2 C-0.67 1.34 -0.34 0.68 0 0 Z M20 5 C22.15694272 11.36298102 23.96740073 16.08814394 29.875 19.8125 C33.16185295 21.06150412 35.51690451 21.24879253 39 21 C37.11990038 14.58554247 34.91019098 10.42228202 29 7 C26.02695322 6.01686211 23.10177169 5.40794276 20 5 Z M37 6 C39.25761808 12.09556882 41.28663384 16.44262107 47 20 C49.97150703 20.92403656 52.92409607 21.54203208 56 22 C55.75224577 16.92103822 54.08867816 14.17001206 50.74609375 10.546875 C47.27342655 7.47041815 43.73251854 6.11058629 39.0625 5.8125 C38.381875 5.874375 37.70125 5.93625 37 6 Z M-8 19 C-2.63249847 24.70157423 -2.63249847 24.70157423 4.75 26.125 C5.8225 26.08375 6.895 26.0425 8 26 C7.01 24.68 6.02 23.36 5 22 C6.75 18.125 6.75 18.125 9 17 C9 16.34 9 15.68 9 15 C2.01370081 14.49395016 -2.20200116 14.9666095 -8 19 Z M9 20 C10.01070329 22.6645814 10.9399484 23.95195872 13.1875 25.75 C16.79778563 27.35457139 19.08564756 27.55919321 23 27 C25.93973281 24.64581624 25.93973281 24.64581624 28 22 C24.09519214 18.16008239 24.09519214 18.16008239 19.0625 16.5 C15.2947312 17.11514593 12.43867621 18.34943542 9 20 Z M42 20 C42 20.66 42 21.32 42 22 C42.66 21.67 43.32 21.34 44 21 C43.34 20.67 42.68 20.34 42 20 Z M25 29 C23.08055859 32.23114411 21.48754031 35.55101274 20 39 C22.25505318 39.76170685 23.60674522 40.10826447 25.9296875 39.46875 C31.0520254 36.91786687 34.90609691 33.88172945 38 29 C38.67404128 26.87054753 38.67404128 26.87054753 39 25 C32.98928333 24.58546782 29.61359811 24.6939751 25 29 Z M40.6875 31.3125 C38.66003651 34.54142333 37.87066798 37.29966108 37 41 C43.87545589 39.42293366 49.30383428 37.45662437 54 32 C55.58739449 29.32127179 56 28.18337094 56 25 C49.4604669 24.36199677 45.16231994 26.83768006 40.6875 31.3125 Z " fill="#060606" transform="translate(456,247)"/>
<path d="M0 0 C1 1 1 1 1.09765625 3.94140625 C1.08605469 5.13636719 1.07445312 6.33132812 1.0625 7.5625 C1.05347656 8.76003906 1.04445313 9.95757812 1.03515625 11.19140625 C1.02355469 12.11824219 1.01195312 13.04507813 1 14 C0.030625 13.938125 -0.93875 13.87625 -1.9375 13.8125 C-7.54941509 13.82390633 -12.80085831 15.43745196 -17.375 18.6875 C-21.84631624 25.05052696 -22.45687183 31.4376495 -22.51171875 38.96875 C-22.52966995 39.88966431 -22.54762115 40.81057861 -22.56611633 41.75939941 C-22.61988015 44.6728877 -22.65400545 47.5862154 -22.6875 50.5 C-22.72070307 52.48700135 -22.75519546 54.4739816 -22.79101562 56.4609375 C-22.87558684 61.30717514 -22.94255891 66.15336796 -23 71 C-27.29 71 -31.58 71 -36 71 C-36 47.9 -36 24.8 -36 1 C-32.04 1 -28.08 1 -24 1 C-23.67 4.3 -23.34 7.6 -23 11 C-22.13375 9.906875 -21.2675 8.81375 -20.375 7.6875 C-14.8259531 1.22449243 -8.29386757 -0.37699398 0 0 Z " fill="#010101" transform="translate(809,136)"/>
<path d="M0 0 C3.37604652 2.04191311 6.22195185 4.44390371 8 8 C8.39771327 12.77255923 8.47453429 15.08482672 6.25 19.375 C3.66434303 22.3915998 1.78439489 23.72098553 -2.1484375 24.3359375 C-7.5930041 24.43145621 -10.74878427 23.73277479 -15 20 C-17.34781141 17.01187638 -17.41825081 13.78088812 -17.3203125 10.03125 C-16.78643864 6.64570842 -15.19273902 4.55819552 -13 2 C-8.81076554 -0.53627973 -4.77744875 -0.94746042 0 0 Z M-12 9 C-12.63007693 12.99048721 -12.63021887 15.01685857 -10.4375 18.4375 C-7.05782196 20.60396028 -4.94016013 20.56288002 -1 20 C1.60314994 18.6469872 1.60314994 18.6469872 3 16 C3.60966834 13.19322499 3.6655395 10.79985585 3 8 C0.61054251 5.26919144 -0.97333979 4.23099855 -4.5 3.4375 C-8.27592854 4.28708392 -9.7132584 5.92923271 -12 9 Z " fill="#040404" transform="translate(645,258)"/>
<path d="M0 0 C3.0625 1.5 3.0625 1.5 5 3 C4.34 4.32 3.68 5.64 3 7 C1.9790625 6.4740625 1.9790625 6.4740625 0.9375 5.9375 C-2.7820374 4.75041359 -5.23213639 5.07580704 -9 6 C-11.46943529 9.70415293 -11.46913089 11.62144505 -11 16 C-9.59869315 18.13575439 -9.59869315 18.13575439 -7 19 C-4.27940731 19.22844671 -1.7408346 19.13704173 1 19 C1 17.68 1 16.36 1 15 C-0.98 15 -2.96 15 -5 15 C-5 13.68 -5 12.36 -5 11 C-1.7 11 1.6 11 5 11 C6.51470588 17.05882353 6.51470588 17.05882353 6 20 C2.72159541 23.11028128 -0.06540177 24.28239704 -4.5 24.5 C-8.94517375 24.29010984 -11.61667727 22.97072239 -15 20 C-17.3792967 16.9718042 -17.36275446 13.75230621 -17.25 9.9609375 C-16.73713911 5.93818488 -14.87867415 3.74945736 -11.875 1.1875 C-7.86390688 -0.46925585 -4.28293998 -0.60410365 0 0 Z " fill="#050506" transform="translate(869,258)"/>
<path d="M0 0 C5.44630895 0.04938363 8.19099862 1.06751004 12.31640625 4.5859375 C14.94502037 7.63713536 14.97014307 11.34746369 14.75 15.25 C12.62554983 19.66231959 10.34915494 22.48862151 5.75 24.25 C2.0650479 24.53467441 -1.56659482 24.57137092 -5.25 24.25 C-6.90394117 22.59605883 -6.37999683 20.64684587 -6.3828125 18.375 C-6.38410156 17.39015625 -6.38539063 16.4053125 -6.38671875 15.390625 C-6.38285156 14.35421875 -6.37898437 13.3178125 -6.375 12.25 C-6.38080078 10.69539063 -6.38080078 10.69539063 -6.38671875 9.109375 C-6.38542969 8.12453125 -6.38414062 7.1396875 -6.3828125 6.125 C-6.38168457 5.21492188 -6.38055664 4.30484375 -6.37939453 3.3671875 C-6.12647695 -0.77111672 -3.58862232 0.05757148 0 0 Z M-1.25 4.25 C-1.25 9.53 -1.25 14.81 -1.25 20.25 C4.40387856 20.71256601 4.40387856 20.71256601 7.625 18.75 C10.19978331 15.72084317 10.49545844 14.04349229 10.234375 10.15625 C9.827628 7.96975955 9.827628 7.96975955 7.625 5.75 C4.40387856 3.78743399 4.40387856 3.78743399 -1.25 4.25 Z " fill="#050606" transform="translate(746.25,257.75)"/>
<path d="M0 0 C12 0 12 0 17 3 C18 4 18 4 18.3125 6.75 C17.93491949 10.67683725 16.66026601 12.17346736 14 15 C15.65 17.97 17.3 20.94 19 24 C17.35 24 15.7 24 14 24 C12.55859375 22.28515625 12.55859375 22.28515625 11.4375 20.0625 C10.37669958 17.84956914 10.37669958 17.84956914 9 16 C7.68 15.67 6.36 15.34 5 15 C5 17.97 5 20.94 5 24 C3.35 24 1.7 24 0 24 C0 16.08 0 8.16 0 0 Z M5 4 C3.66667905 6.6666419 4.32897967 8.16680303 5 11 C7.33294775 11.04241723 9.66702567 11.04092937 12 11 C13.29633621 9.93354885 13.29633621 9.93354885 13.0625 7.4375 C13.041875 6.633125 13.02125 5.82875 13 5 C10.29120665 3.64560332 7.99066732 3.93498549 5 4 Z " fill="#040404" transform="translate(706,258)"/>
<path d="M0 0 C4.00869916 2.33233405 6.1499349 4.50115384 7.5625 8.875 C8.37909046 13.29125452 7.30504628 16.13347076 5 20 C2.72721202 22.68602215 1.13932657 23.79804579 -2.3359375 24.4140625 C-6.81066843 24.66937748 -10.00946517 24.51720468 -13.5625 21.625 C-17.34027548 17.55662641 -17.33964393 14.87474936 -17.28515625 9.48046875 C-16.88136394 5.96802881 -15.61222617 4.32197882 -13 2 C-8.7369625 -0.50609526 -4.84115245 -0.79707016 0 0 Z M-12 8 C-13.17590974 11.68451718 -13.33481338 13.28254275 -11.6875 16.8125 C-9.54438016 19.59061831 -8.65668921 19.91244144 -5.1875 20.375 C-1.83839824 20.24832839 -1.83839824 20.24832839 0.875 17.875 C3.18205087 15.17260217 3.18205087 15.17260217 3.625 12 C2.77618008 7.9256644 1.32274404 6.45594125 -2 4 C-6.84573213 3.10996757 -9.14842094 3.98666651 -12 8 Z " fill="#020203" transform="translate(793,258)"/>
<path d="M0 0 C1.32 0 2.64 0 4 0 C4.33 2.97 4.66 5.94 5 9 C8.3 9.33 11.6 9.66 15 10 C15 6.7 15 3.4 15 0 C16.65 0 18.3 0 20 0 C20 7.92 20 15.84 20 24 C18.35 24 16.7 24 15 24 C15 20.7 15 17.4 15 14 C11.37 14 7.74 14 4 14 C4 17.3 4 20.6 4 24 C2.68 24 1.36 24 0 24 C0 16.08 0 8.16 0 0 Z " fill="#030303" transform="translate(891,258)"/>
<path d="M0 0 C2.85326945 2.64449363 4.84590369 4.87028253 6.5625 8.375 C5.8125 11.25 5.8125 11.25 4.5625 13.375 C2.3125 13.25 2.3125 13.25 -0.4375 12.375 C-1.076875 11.385 -1.71625 10.395 -2.375 9.375 C-4.16186143 6.15236596 -4.16186143 6.15236596 -7.375 5.3125 C-11.1045671 5.38861361 -12.58267958 5.98312343 -15.4375 8.375 C-17.26379794 11.44180799 -17.26379794 11.44180799 -18.4375 14.375 C-20.0875 14.045 -21.7375 13.715 -23.4375 13.375 C-24.32279564 10.93223981 -24.6050728 9.79074014 -23.6171875 7.33984375 C-17.90669359 -1.53364829 -10.12886536 -4.7881909 0 0 Z " fill="#030303" transform="translate(209.4375,70.625)"/>
<path d="M0 0 C1.65 0 3.3 0 5 0 C5.33 5.94 5.66 11.88 6 18 C8.31 18.33 10.62 18.66 13 19 C15.48044315 15.27933528 15.44381173 12.13459526 15.625 7.8125 C15.68300781 6.68811523 15.68300781 6.68811523 15.7421875 5.54101562 C15.83628216 3.69440801 15.91922319 1.8472381 16 0 C17.32 0 18.64 0 20 0 C20.13530844 3.06398451 20.2342407 6.12197126 20.3125 9.1875 C20.35439453 10.05181641 20.39628906 10.91613281 20.43945312 11.80664062 C20.52537656 16.29184414 20.47091874 18.35238401 17.76171875 22.078125 C14.20781554 24.55127971 12.34325751 24.66387916 8.15625 24.43359375 C4.96987639 23.79285558 3.19669322 22.33398654 1 20 C-0.1482685 17.703463 -0.11561175 16.41686833 -0.09765625 13.8671875 C-0.09443359 13.06152344 -0.09121094 12.25585938 -0.08789062 11.42578125 C-0.07951172 10.58402344 -0.07113281 9.74226563 -0.0625 8.875 C-0.05798828 8.02550781 -0.05347656 7.17601562 -0.04882812 6.30078125 C-0.03702874 4.20049091 -0.01909306 2.1002367 0 0 Z " fill="#030303" transform="translate(816,258)"/>
<path d="M0 0 C1.32 0 2.64 0 4 0 C4.04898438 1.12019531 4.09796875 2.24039062 4.1484375 3.39453125 C4.22347856 4.86721203 4.29902582 6.33986707 4.375 7.8125 C4.4059375 8.55048828 4.436875 9.28847656 4.46875 10.04882812 C4.67346148 13.81893115 4.86433827 15.79650741 7 19 C10.08365871 19.2502157 10.08365871 19.2502157 13 19 C14.94456928 14.86581409 15.37028021 11.230003 15.625 6.6875 C15.69976563 5.43324219 15.77453125 4.17898438 15.8515625 2.88671875 C15.90054688 1.93410156 15.94953125 0.98148437 16 0 C17.32 0 18.64 0 20 0 C20.13530844 3.06398451 20.2342407 6.12197126 20.3125 9.1875 C20.35439453 10.05181641 20.39628906 10.91613281 20.43945312 11.80664062 C20.52494545 16.26934007 20.46379564 18.35396961 17.79296875 22.07421875 C14.85822166 24.09775766 13.51485776 24.67991965 10 24.625 C9.175 24.63789063 8.35 24.65078125 7.5 24.6640625 C3.72542757 23.6614417 2.31118854 22.13258655 0 19 C-0.74545067 15.91470271 -0.83481196 12.9148082 -0.875 9.75 C-0.90851562 8.92242187 -0.94203125 8.09484375 -0.9765625 7.2421875 C-1.04474697 5.16256114 -1.02948126 3.08053497 -1 1 C-0.67 0.67 -0.34 0.34 0 0 Z " fill="#020203" transform="translate(669,258)"/>
<path d="M0 0 C2.5 2 2.5 2 4 4 C1.08291076 5.98362069 -0.12380904 5.9876191 -3.75 5.625 C-4.8225 5.41875 -5.895 5.2125 -7 5 C-7 5.99 -7 6.98 -7 8 C-6.37351562 8.26554687 -5.74703125 8.53109375 -5.1015625 8.8046875 C-3.87566406 9.33449219 -3.87566406 9.33449219 -2.625 9.875 C-1.81289063 10.22304688 -1.00078125 10.57109375 -0.1640625 10.9296875 C2 12 2 12 4 14 C4.66574776 20.1026878 4.66574776 20.1026878 2.5625 22.9375 C-1.28150474 24.53135562 -4.89901369 24.58693015 -9 24 C-11.5625 22.5 -11.5625 22.5 -13 21 C-12.505 19.515 -12.505 19.515 -12 18 C-11.484375 18.165 -10.96875 18.33 -10.4375 18.5 C-7.26636124 19.15049 -4.22781666 19.0620734 -1 19 C-1 18.01 -1 17.02 -1 16 C-1.61488281 15.74605469 -2.22976563 15.49210937 -2.86328125 15.23046875 C-3.67152344 14.88628906 -4.47976563 14.54210937 -5.3125 14.1875 C-6.11300781 13.85105469 -6.91351562 13.51460938 -7.73828125 13.16796875 C-10.00979479 11.9949419 -11.43616309 11.01572484 -13 9 C-12.92999366 5.63969563 -12.60671445 3.72805734 -10.4375 1.125 C-6.9413113 -0.48862555 -3.78297326 -0.73643947 0 0 Z " fill="#030303" transform="translate(609,258)"/>
</svg>
