<?xml version="1.0" encoding="UTF-8"?>
<svg version="1.1" xmlns="http://www.w3.org/2000/svg" width="751" height="701">
<path d="M0 0 C4.60903946 4.49766862 8.54388111 9.0132102 11 15 C11.65742188 14.74605469 12.31484375 14.49210937 12.9921875 14.23046875 C37.04163207 5.52965344 67.18743356 4.75072695 92 11 C92.69899414 11.16628906 93.39798828 11.33257812 94.11816406 11.50390625 C122.34623814 18.36092829 147.17558502 35.87409972 162.36328125 60.7734375 C166.88964259 68.60314601 169.5469718 76.02452372 171 85 C171.60457031 85.10441406 172.20914062 85.20882812 172.83203125 85.31640625 C176.33700455 86.42157801 177.84411127 89.14490411 180 92 C181.26816864 94.53633728 180.95538081 96.58033588 180.83349609 99.35742188 C180.55323067 106.54926207 181.01317318 111.49894493 184.75390625 117.8359375 C188.66833499 124.63403632 188.84952787 132.6129316 187.25 140.125 C185.68279556 145.75369202 182.39335851 150.19242263 178 154 C177.34 154 176.68 154 176 154 C176.01110306 154.58802399 176.02220612 155.17604797 176.03364563 155.78189087 C176.14444628 161.91384662 176.21975287 168.04551705 176.2746582 174.17822266 C176.29976942 176.46544957 176.33386516 178.7525965 176.37719727 181.03955078 C176.43799581 184.33125565 176.4662444 187.6218977 176.48828125 190.9140625 C176.52699089 192.44252304 176.52699089 192.44252304 176.56648254 194.00186157 C176.56960684 201.94832766 176.56960684 201.94832766 173.59448242 205.63037109 C170.08279208 208.83771714 168.53331507 209.12841841 163.89526367 209.17700195 C162.29801704 209.19625481 162.29801704 209.19625481 160.66850281 209.21589661 C159.51332657 209.22328354 158.35815033 209.23067047 157.16796875 209.23828125 C155.98407059 209.246353 154.80017242 209.25442474 153.58039856 209.26274109 C151.07111073 209.27659064 148.56180399 209.28730888 146.05249023 209.29516602 C142.21366716 209.31238264 138.37570418 209.35626318 134.53710938 209.40039062 C132.10156885 209.41051688 129.66602098 209.41903319 127.23046875 209.42578125 C126.0813652 209.44328934 124.93226166 209.46079742 123.74833679 209.47883606 C115.80792802 209.45721224 115.80792802 209.45721224 111.8605957 207.22338867 C108.99082521 203.79404871 107.74591439 201.17821128 107.77294922 196.69042969 C107.77310028 195.84986023 107.77325134 195.00929077 107.77340698 194.14324951 C107.78372955 193.24519592 107.79405212 192.34714233 107.8046875 191.421875 C107.80893234 190.03201385 107.80893234 190.03201385 107.81326294 188.61407471 C107.82444389 185.65925091 107.84954473 182.70473195 107.875 179.75 C107.88503249 177.74479605 107.89415787 175.73958734 107.90234375 173.734375 C107.92437642 168.82279949 107.95889205 163.91145141 108 159 C106.97619232 158.91197617 106.97619232 158.91197617 105.93170166 158.82217407 C105.03417175 158.73986542 104.13664185 158.65755676 103.21191406 158.57275391 C102.32312561 158.49344635 101.43433716 158.41413879 100.51861572 158.33242798 C93.62888757 157.423064 86.92204745 153.4576582 82.1875 148.4375 C80.37000494 146.02130069 80.00658443 145.29629957 79.9375 142.1875 C81 140 81 140 84 138 C86.4375 138.0625 86.4375 138.0625 89 139 C89.86625 140.1446875 89.86625 140.1446875 90.75 141.3125 C94.42426783 145.70120879 99.37463116 147.29990164 104.8125 148.75 C116.72101316 149.68400103 126.90809387 148.98794141 136.94921875 141.9609375 C140.74083937 138.33542598 142.85447721 133.72856394 145 129 C144.13375 128.7525 143.2675 128.505 142.375 128.25 C134.1299763 125.19628752 128.59708518 119.53289092 124.625 111.8125 C122.38500931 106.31605226 122.17495045 100.84201752 123 95 C125.62548289 89.554554 129.28973041 86.00038747 134.984375 83.8984375 C139.91352053 82.56110746 144.86881975 82.78492093 149.9375 82.875 C150.90751953 82.88402344 151.87753906 82.89304687 152.87695312 82.90234375 C155.25156407 82.92573893 157.62564776 82.95851824 160 83 C154.97750983 68.44172204 147.68187465 57.83382165 137 47 C136.26910156 46.25621094 135.53820312 45.51242188 134.78515625 44.74609375 C114.88842465 25.81270483 85.88265377 18.83121813 59.25170898 18.75976562 C57.09903754 18.75016299 54.94736592 18.71912815 52.79492188 18.6875 C39.51729363 18.58650702 24.96948961 19.78716147 13 26 C10.33197574 28.50693108 10.33197574 28.50693108 9 31 C6.125 30.8125 6.125 30.8125 3 30 C1.55453843 27.6872615 1.10454239 25.53553317 0.5859375 22.87890625 C-0.6069727 16.88402705 -2.34711404 12.751141 -6.6875 8.25 C-11.92344307 5.4197605 -16.95586515 4.35558777 -22.75 6 C-28.2354537 8.1731204 -30.72551063 11.3903313 -33.3125 16.6875 C-35.07620075 25.18533087 -34.59124317 32.51906064 -30 40 C-29.10960807 41.0846134 -28.19407957 42.14928144 -27.25 43.1875 C-25 46 -25 46 -24.375 49.1875 C-25 52 -25 52 -27.5 53.875 C-28.325 54.24625 -29.15 54.6175 -30 55 C-33.54865549 53.02852473 -36.18600451 50.91020046 -39 48 C-60.05593742 59.86120492 -78.96910189 75.47215855 -96.67578125 91.85546875 C-98.66979194 93.69532063 -100.69255178 95.48208607 -102.75 97.25 C-113.80623352 106.90154811 -124.29025902 116.99314329 -134 128 C-134.45294434 128.50821289 -134.90588867 129.01642578 -135.37255859 129.54003906 C-149.12014846 145.03264843 -160.48056035 162.19758941 -171 180 C-171.39026367 180.65500488 -171.78052734 181.31000977 -172.18261719 181.98486328 C-188.88538248 210.36417002 -198.99968436 245.07656786 -200 278 C-200.03996094 279.08925781 -200.07992187 280.17851562 -200.12109375 281.30078125 C-200.98409459 327.75053257 -185.76330272 370.08425712 -154 404 C-142.40245291 416.03627601 -126.89858681 429.29027526 -109.41697216 430.12304783 C-108.4924138 430.12212604 -107.56785543 430.12120424 -106.61528015 430.12025452 C-105.01469505 430.12231651 -105.01469505 430.12231651 -103.3817749 430.12442017 C-102.22155823 430.12082489 -101.06134155 430.11722961 -99.8659668 430.11352539 C-98.63628677 430.11367142 -97.40660675 430.11381744 -96.1396637 430.1139679 C-92.77640648 430.1133914 -89.41321096 430.1083827 -86.04996467 430.10139394 C-82.53191291 430.09513455 -79.0138603 430.09455455 -75.49580383 430.09336853 C-68.8377606 430.09026284 -62.17973382 430.08205972 -55.52169782 430.07201904 C-47.94010809 430.06083425 -40.35851756 430.05534149 -32.77692163 430.05032361 C-17.1846049 430.03987647 -1.59230457 430.02229178 14 430 C13.24871826 429.04593262 12.49743652 428.09186523 11.72338867 427.10888672 C10.72572489 425.84083904 9.72808625 424.57277159 8.73046875 423.3046875 C8.23671753 422.67780029 7.74296631 422.05091309 7.23425293 421.4050293 C3.75715308 416.9838354 0.34599007 412.5216082 -3 408 C-7.25429883 408.53825679 -10.08147875 411.1576365 -13.3125 413.75 C-14.47494422 414.65795706 -15.63770176 415.56551312 -16.80078125 416.47265625 C-18.62156959 417.90565959 -20.43063085 419.34918054 -22.23046875 420.80859375 C-24.85130156 422.85087627 -26.43503346 423.98744519 -29.8125 424.0625 C-32 423 -32 423 -33.5 421.25 C-34 419 -34 419 -32.80932617 416.57470703 C-30.92276982 413.89009991 -29.23354426 412.41558599 -26.55078125 410.5546875 C-25.70322266 409.95269531 -24.85566406 409.35070312 -23.98242188 408.73046875 C-22.19091053 407.48545355 -20.39924185 406.24066473 -18.60742188 404.99609375 C-17.34188477 404.09697266 -17.34188477 404.09697266 -16.05078125 403.1796875 C-14.88542847 402.37120361 -14.88542847 402.37120361 -13.6965332 401.54638672 C-13.13667725 401.0360791 -12.57682129 400.52577148 -12 400 C-12 396.42022569 -12.62951331 395.88728806 -14.88671875 393.234375 C-15.49580078 392.50863281 -16.10488281 391.78289062 -16.73242188 391.03515625 C-17.70018555 389.90400391 -17.70018555 389.90400391 -18.6875 388.75 C-23.02310062 383.63300895 -27.18258826 378.51809422 -31 373 C-35.7408328 376.03413299 -40.04616403 379.40862575 -44.375 383 C-50.52774814 388.05345523 -56.78110686 392.93132685 -63.18432617 397.66308594 C-66.40851056 400.04699446 -69.59668667 402.45590786 -72.71875 404.97265625 C-73.59817261 405.67515503 -73.59817261 405.67515503 -74.49536133 406.3918457 C-76.08058904 407.6641905 -77.6559074 408.9488538 -79.23046875 410.234375 C-82.20354485 412.12976343 -83.55404946 412.59515553 -87 412 C-89 410 -89 410 -89.3515625 407.6015625 C-88.89890715 404.25191289 -87.95745032 403.50669536 -85.375 401.375 C-84.55128906 400.68792969 -83.72757812 400.00085938 -82.87890625 399.29296875 C-81.92886719 398.53628906 -80.97882813 397.77960938 -80 397 C-79.48034668 396.58443848 -78.96069336 396.16887695 -78.42529297 395.74072266 C-74.91222943 392.93755818 -71.37201115 390.1704186 -67.82177734 387.41455078 C-64.91687318 385.1589873 -62.01945593 382.89395037 -59.125 380.625 C-58.55160889 380.17592285 -57.97821777 379.7268457 -57.38745117 379.26416016 C-53.60195636 376.2888315 -49.86158898 373.2628612 -46.13745117 370.21118164 C-39.002112 364.36562233 -31.74604694 358.73554902 -24.33984375 353.23828125 C-20.23331489 350.18686892 -16.17042367 347.08024695 -12.10913086 343.96899414 C-3.76568262 337.57898115 4.6187412 331.28366759 13.22509766 325.25244141 C15.19490656 323.86246621 17.15044004 322.45365081 19.10546875 321.04296875 C28.70630068 314.14325503 38.46120561 307.47621366 48.95043945 301.97753906 C50.67455181 301.05795403 52.34241204 300.0346991 54 299 C55.10135489 295.71307604 55.10135489 295.71307604 55 292 C55.0825 290.824375 55.165 289.64875 55.25 288.4375 C54.97225563 274.078116 49.59294534 260.71017893 39.6640625 250.3828125 C23.26293298 235.71318053 4.32558289 232.13915419 -17.13574219 232.82958984 C-33.98784045 233.83221212 -49.54524767 241.96535811 -62 253 C-63.06186123 253.90722452 -64.12580215 254.81201846 -65.19140625 255.71484375 C-70.72013139 260.40818675 -76.19489461 265.1640455 -81.66918945 269.9206543 C-82.92599626 271.01053512 -84.18493453 272.09796312 -85.44604492 273.18286133 C-88.53802231 275.84460143 -91.59267499 278.53245427 -94.58984375 281.30078125 C-95.45210571 282.07796509 -95.45210571 282.07796509 -96.33178711 282.87084961 C-97.41103526 283.84395774 -98.47682683 284.83229287 -99.52563477 285.83813477 C-102.55367657 288.52922606 -103.74949369 289.01363643 -107.875 288.7890625 C-109.421875 288.39847656 -109.421875 288.39847656 -111 288 C-111.75 285.8125 -111.75 285.8125 -112 283 C-109.41650919 279.2581835 -106.4316669 276.54970864 -102.875 273.75 C-99.14695303 270.76360694 -95.52632476 267.722137 -92 264.5 C-87.77875197 260.65707136 -83.42122147 257.03389251 -78.9765625 253.453125 C-76.82776671 251.68220143 -74.72946581 249.89377277 -72.6484375 248.046875 C-61.33009496 238.02250929 -45.93217216 225 -30 225 C-30.47050781 224.443125 -30.94101562 223.88625 -31.42578125 223.3125 C-39.52506123 213.3854322 -41.05200869 205.92863307 -40 193 C-39.08892987 188.66657668 -38.16342077 185.16342077 -35 182 C-32.5 181.75 -32.5 181.75 -30 182 C-29.34 182.66 -28.68 183.32 -28 184 C-28.20585992 186.05859921 -28.42297069 188.11659083 -28.69140625 190.16796875 C-30.05181376 202.17962918 -30.05181376 202.17962918 -26.40625 213.3828125 C-22.91986083 217.39216005 -18.22687643 220.08621042 -13 221 C-11.13982667 221.09218921 -9.27929667 221.18113976 -7.41772461 221.23852539 C12.50437615 221.91837633 31.26732667 228.11831141 46 242 C46.69351562 242.65226563 47.38703125 243.30453125 48.1015625 243.9765625 C60.34975652 256.60307912 65.40212129 272.2801652 65.15429688 289.56591797 C65.11290739 291.37753595 65.05794009 293.18883581 65 295 C65.72960937 294.74605469 66.45921875 294.49210937 67.2109375 294.23046875 C95.52639696 284.89685434 125.58808014 285.11832801 152.5625 298.625 C163.46536846 304.91264243 172.38282798 313.28049569 179 324 C179.49113281 324.77601563 179.98226563 325.55203125 180.48828125 326.3515625 C186.58346382 337.10353647 188.43956476 350.95093017 186 363 C181.6940799 377.47451602 174.51525844 387.85331311 162.3125 396.5625 C161.47525391 397.16964844 160.63800781 397.77679688 159.77539062 398.40234375 C157.1888733 400.2756741 154.5950208 402.13847332 152 404 C150.47219582 405.10222666 148.94483264 406.20506492 147.41796875 407.30859375 C145.20776782 408.90576934 142.99702621 410.50214009 140.78369141 412.0949707 C135.21879768 416.10283807 129.69906224 420.16921316 124.1875 424.25 C101.33590827 441.15063213 101.33590827 441.15063213 91.75393677 441.14044189 C90.4593787 441.14489858 90.4593787 441.14489858 89.13866794 441.1494453 C86.22931714 441.15815831 83.32000737 441.15964277 80.41064453 441.16113281 C78.33132336 441.16575939 76.25200304 441.17078383 74.17268372 441.17617798 C68.50895423 441.18932512 62.84523661 441.1957522 57.18149424 441.20018864 C53.64190797 441.20311747 50.10232496 441.20722206 46.56274033 441.21169281 C35.48568681 441.22537787 24.40864072 441.23503787 13.33157933 441.2388947 C0.55113814 441.24336896 -12.22919576 441.26088325 -25.00960433 441.2898953 C-34.8891582 441.3115418 -44.76868196 441.32160068 -54.64825928 441.32293582 C-60.54742752 441.32398232 -66.44649504 441.32985642 -72.34563828 441.34775543 C-77.90240788 441.3642859 -83.45900163 441.36636744 -89.01578712 441.35761642 C-91.04902557 441.35684854 -93.08227365 441.36115579 -95.11548805 441.37107468 C-122.87252362 441.49847574 -141.48481305 431.53781353 -161.0625 412.375 C-190.50613166 382.67215247 -209.81190763 340.50033694 -210.23828125 298.41796875 C-210.2480751 297.6144548 -210.25786896 296.81094086 -210.26795959 295.983078 C-210.83249048 237.54622687 -193.10856758 183.74273925 -156 138 C-155.23945313 137.04738281 -154.47890625 136.09476563 -153.6953125 135.11328125 C-149.40090664 129.78613765 -144.95261722 124.63207746 -140.3359375 119.58203125 C-139.06349746 118.17553817 -137.7972297 116.76291738 -136.56445312 115.3215332 C-131.70839082 109.65540196 -126.52421792 104.33805471 -121.24951172 99.06420898 C-119.76106763 97.57358385 -118.28082723 96.07512983 -116.80078125 94.57617188 C-111.26203689 89.00568176 -105.57889129 83.83042123 -99.41430664 78.94067383 C-97.09424272 77.07575441 -94.88388134 75.13313556 -92.6875 73.125 C-77.92826091 59.90426817 -61.45314642 47.41101033 -44 38 C-44.15855469 37.14792969 -44.31710937 36.29585937 -44.48046875 35.41796875 C-46.11816675 24.64363983 -45.57933772 14.6593905 -39.90234375 5.1640625 C-34.88386609 -1.53858223 -27.89056326 -4.67173249 -19.8046875 -5.84765625 C-12.69652235 -6.23375436 -5.60973566 -4.53094034 0 0 Z M134 95 C131.79961608 97.72428486 132.01006716 99.31208186 132.125 102.875 C133.21995116 109.59401851 137.31829932 113.55962593 142.31640625 117.80078125 C146.42782789 120.72933448 151.17687661 120.54025246 156 120 C162.67973679 118.10014733 166.52456017 113.85653701 170 108 C171.20901009 104.37296974 171.78660475 100.75982637 171 97 C168.7696299 94.10115969 167.60633492 93.09649764 163.94726562 92.51416016 C162.77873047 92.52237793 161.61019531 92.5305957 160.40625 92.5390625 C159.12878906 92.54292969 157.85132813 92.54679687 156.53515625 92.55078125 C155.54153076 92.56939209 155.54153076 92.56939209 154.52783203 92.58837891 C152.50632239 92.62488582 150.4866487 92.62939805 148.46484375 92.62890625 C140.89070074 92.38910342 140.89070074 92.38910342 134 95 Z M173 119 C172.29875 119.7425 171.5975 120.485 170.875 121.25 C166.89594872 125.05604905 162.50641529 127.33162259 157.1875 128.75 C154.10812 130.50964571 153.55660984 132.68012222 152.3828125 135.9296875 C151.94033625 138.32267128 152.17907116 139.72227836 153 142 C155.86721315 145.61056471 158.50396564 147.04891581 163 148 C166.88371155 148.27962723 169.7908823 148.04459412 172.80859375 145.4375 C177.37996377 140.17549135 178.27098726 136.85733182 178.234375 129.91015625 C177.90441554 125.81315968 176.6890041 122.72988406 175 119 C174.34 119 173.68 119 173 119 Z M149 152 C149 167.84 149 183.68 149 200 C154.28 200 159.56 200 165 200 C166.4612027 198.76766415 166.4612027 198.76766415 166.11352539 195.03100586 C166.1133662 193.25894393 166.10766785 191.4868774 166.09765625 189.71484375 C166.09553383 188.31861534 166.09553383 188.31861534 166.09336853 186.8941803 C166.08775172 183.90858809 166.0751964 180.92306971 166.0625 177.9375 C166.05748716 175.91862087 166.05292388 173.89974057 166.04882812 171.88085938 C166.03777683 166.92054428 166.02050095 161.96028468 166 157 C165.27554687 156.89042969 164.55109375 156.78085938 163.8046875 156.66796875 C162.83789062 156.50941406 161.87109375 156.35085937 160.875 156.1875 C159.92367188 156.03667969 158.97234375 155.88585937 157.9921875 155.73046875 C155 155 155 155 149 152 Z M131.12890625 155.9296875 C126.83417159 157.39879773 122.45919619 158.18784587 118 159 C117.97535295 164.67830078 117.95716538 170.35657069 117.94506836 176.03491211 C117.94002744 177.96818585 117.93319481 179.90145576 117.92456055 181.8347168 C117.91248435 184.60726872 117.90676943 187.37977041 117.90234375 190.15234375 C117.89718246 191.02213364 117.89202118 191.89192352 117.88670349 192.78807068 C117.88650815 194.85905814 117.93791832 196.92994324 118 199 C118.33 199.33 118.66 199.66 119 200 C125.6 200 132.2 200 139 200 C139 184.49 139 168.98 139 153 C136.38613388 153 133.49572753 154.90393831 131.12890625 155.9296875 Z M12.22265625 338.36279297 C9.86063698 340.1026547 7.49306419 341.83478269 5.125 343.56640625 C0.40239684 347.02518143 -4.30209129 350.50778642 -9 354 C-9.68658691 354.50789063 -10.37317383 355.01578125 -11.08056641 355.5390625 C-12.93478572 356.91398795 -14.78122649 358.29861253 -16.625 359.6875 C-17.64851562 360.45449219 -18.67203125 361.22148437 -19.7265625 362.01171875 C-22.23754717 363.86942581 -22.23754717 363.86942581 -23 367 C-21.63833166 369.09911119 -20.26668683 370.94967048 -18.6875 372.875 C-17.76661828 374.03230643 -16.84605517 375.18986645 -15.92578125 376.34765625 C-15.4457666 376.94465332 -14.96575195 377.54165039 -14.47119141 378.15673828 C-12.06211466 381.17508037 -9.72154907 384.24547804 -7.375 387.3125 C-6.52896971 388.41300947 -5.68264558 389.51329316 -4.8359375 390.61328125 C-4.23007812 391.40089844 -3.62421875 392.18851562 -3 393 C2.15333802 390.22259432 6.56606072 387.10788163 11.0625 383.375 C16.7450008 378.72815882 22.54708232 374.35304322 28.60766602 370.21044922 C31.3913688 368.28103689 33.09231043 366.86153435 35 364 C34.33613281 363.21496094 33.67226563 362.42992187 32.98828125 361.62109375 C30.7156309 358.92406643 28.46231333 356.21178549 26.22265625 353.48730469 C25.21504182 352.26158841 24.20199983 351.040336 23.1875 349.8203125 C21.03119669 347.06367475 19.959849 345.62903226 20.1875 342.0625 C21 340 21 340 22.6875 339.1875 C23.450625 339.125625 24.21375 339.06375 25 339 C29.71512034 343.16983432 33.29770856 348.1941283 36.98242188 353.26757812 C38.51170275 355.34593054 38.51170275 355.34593054 41 358 C45.31719873 358 45.9073623 357.6898475 49.16015625 355.21875 C49.9493042 354.62723145 50.73845215 354.03571289 51.55151367 353.42626953 C52.38013916 352.79060059 53.20876465 352.15493164 54.0625 351.5 C55.76805794 350.21591838 57.47378642 348.93206323 59.1796875 347.6484375 C60.4167041 346.71016113 60.4167041 346.71016113 61.67871094 345.75292969 C64.65504122 343.50534329 67.66543931 341.31066791 70.6875 339.125 C71.53699219 338.50882812 72.38648438 337.89265625 73.26171875 337.2578125 C73.83535156 336.84273438 74.40898437 336.42765625 75 336 C73.69989733 332.21131698 72.18696603 329.89182384 69.375 327.0625 C66.77631928 324.22708646 66.05446156 323.43569246 65.5625 319.5 C65.706875 318.675 65.85125 317.85 66 317 C68.734375 316.73046875 68.734375 316.73046875 72 317 C74.265625 318.86328125 74.265625 318.86328125 76.25 321.3125 C76.91515625 322.11300781 77.5803125 322.91351563 78.265625 323.73828125 C79.57439024 325.44498186 80.8069827 327.21047405 82 329 C86.22322426 327.56410375 89.16313889 325.47799755 92.625 322.6875 C98.27664068 318.25840108 104.02286776 313.9732219 109.875 309.8125 C110.67115723 309.22364014 111.46731445 308.63478027 112.28759766 308.02807617 C115.99802606 305.4262656 118.17382458 304.04789423 122.7734375 303.78125 C126.89397596 305.33767615 128.23455151 307.09214345 130.75 310.6875 C131.59499843 311.86295495 132.44140775 313.03739666 133.2890625 314.2109375 C133.72508789 314.82678711 134.16111328 315.44263672 134.61035156 316.07714844 C137.01310447 319.40182902 139.57507098 322.60023561 142.125 325.8125 C143.0654879 327.00620818 144.00562683 328.20019145 144.9453125 329.39453125 C145.96238281 330.68423828 145.96238281 330.68423828 147 332 C150.08919987 330.84481697 152.34601557 329.75284602 155.0625 327.8125 C158 326 158 326 160.375 326.25 C162 327 162 327 162.8125 328.6875 C162.874375 329.450625 162.93625 330.21375 163 331 C160.32764159 334.13047699 157.35980991 336.63568932 154 339 C155.4617827 343.56278992 158.06455337 346.72128525 161.1875 350.25 C162.17849695 351.39330749 163.16807636 352.53784516 164.15625 353.68359375 C164.63964844 354.24288574 165.12304688 354.80217773 165.62109375 355.37841797 C168.54406076 358.81580233 171.27706953 362.4035014 174 366 C178.26102858 357.7204404 177.86712167 349.24476424 175.3125 340.4375 C170.07470903 324.90599483 160.03797406 313.4316107 145.30078125 306.12109375 C95.66912577 282.60336211 51.74522803 309.24986407 12.22265625 338.36279297 Z M114.9375 316.78125 C113.74894409 317.66852783 113.74894409 317.66852783 112.53637695 318.57373047 C111.69937256 319.20939941 110.86236816 319.84506836 110 320.5 C108.28533377 321.78409124 106.57049073 323.06794643 104.85546875 324.3515625 C104.02450684 324.97708008 103.19354492 325.60259766 102.33740234 326.24707031 C99.35057731 328.4870331 96.33629096 330.68522197 93.3125 332.875 C92.03826172 333.79925781 92.03826172 333.79925781 90.73828125 334.7421875 C89.87783203 335.36480469 89.87783203 335.36480469 89 336 C90.34215132 338.89759025 91.87017178 341.25259213 93.8984375 343.71484375 C94.46046875 344.40126953 95.0225 345.08769531 95.6015625 345.79492188 C96.18679688 346.50197266 96.77203125 347.20902344 97.375 347.9375 C98.52875845 349.34235544 99.68240684 350.74730127 100.8359375 352.15234375 C101.37959961 352.81218262 101.92326172 353.47202148 102.48339844 354.15185547 C104.34308768 356.41808979 106.17634027 358.70470414 108 361 C112.32626551 359.53938926 115.37878019 357.33620545 118.9375 354.5 C123.8087406 350.66188049 128.75452938 346.96381551 133.8125 343.375 C134.42923584 342.93736328 135.04597168 342.49972656 135.68139648 342.04882812 C137.11956135 341.03061478 138.55956494 340.01499922 140 339 C138.2517888 334.87994671 135.46958339 331.64201258 132.6875 328.1875 C131.73148653 326.99475938 130.77705438 325.80074956 129.82421875 324.60546875 C129.35419434 324.01813965 128.88416992 323.43081055 128.39990234 322.82568359 C126.96098298 320.94911592 125.65042626 319.01330781 124.33203125 317.05078125 C123.56246094 316.04402344 122.79289062 315.03726562 122 314 C118.44789088 314 117.71423362 314.68736103 114.9375 316.78125 Z M75.5625 345.6875 C69.61767046 350.62845332 63.38038632 355.09114 57.01977539 359.48120117 C55.89430298 360.27361206 55.89430298 360.27361206 54.74609375 361.08203125 C54.07247803 361.54843018 53.3988623 362.0148291 52.70483398 362.49536133 C50.8090353 364.16854009 49.97473301 365.68667923 49 368 C49.3623877 368.44279297 49.72477539 368.88558594 50.09814453 369.34179688 C51.77542918 371.39317524 53.45022113 373.44657547 55.125 375.5 C55.69476563 376.19609375 56.26453125 376.8921875 56.8515625 377.609375 C60.68948881 382.31955729 64.39255004 387.11110749 68 392 C72.95387994 389.30644551 77.31409078 386.35954194 81.6875 382.8125 C82.90144597 381.84262522 84.11630801 380.87389606 85.33203125 379.90625 C85.93869629 379.42285156 86.54536133 378.93945312 87.17041016 378.44140625 C91.70787261 374.866656 96.3609203 371.4410756 101 368 C99.26457013 363.94731985 96.53784112 360.66879817 93.8125 357.25 C93.32217285 356.63108887 92.8318457 356.01217773 92.32666016 355.37451172 C86.89732495 348.48313697 86.89732495 348.48313697 81 342 C78.96472354 342 76.99667378 344.47161751 75.5625 345.6875 Z M140.15625 348.78125 C139.40907715 349.37276855 138.6619043 349.96428711 137.89208984 350.57373047 C137.1027002 351.20939941 136.31331055 351.84506836 135.5 352.5 C133.87865297 353.78517842 132.25625868 355.06903676 130.6328125 356.3515625 C129.84293945 356.97708008 129.05306641 357.60259766 128.23925781 358.24707031 C123.92049315 361.62787388 119.47336115 364.82726368 115 368 C116.218466 371.41053879 117.4548649 373.8091846 119.9375 376.4375 C124.85215507 381.84775054 129.26535044 387.63931138 133.75146484 393.40380859 C135.48276135 395.61718688 137.23906299 397.81016967 139 400 C144.04428061 398.39723637 147.79698954 395.36688918 151.9375 392.1875 C152.62779297 391.66607422 153.31808594 391.14464844 154.02929688 390.60742188 C156.03191665 389.08694942 158.01778177 387.54693554 160 386 C160.56090332 385.57412598 161.12180664 385.14825195 161.69970703 384.70947266 C165.36670456 381.82817802 167.61851176 378.93861517 170 375 C169.17757812 373.99582031 168.35515625 372.99164063 167.5078125 371.95703125 C166.37992572 370.57575156 165.25234344 369.19422318 164.125 367.8125 C163.53799316 367.09449219 162.95098633 366.37648438 162.34619141 365.63671875 C159.50775338 362.1489447 156.70556255 358.6469361 154.015625 355.04296875 C153.56687012 354.44315186 153.11811523 353.84333496 152.65576172 353.2253418 C151.4368504 351.58332002 150.229814 349.93250288 149.0234375 348.28125 C148.35570312 347.5284375 147.68796875 346.775625 147 346 C143.45538068 346 142.85137109 346.62151459 140.15625 348.78125 Z M36.52734375 374.640625 C35.79966797 375.21119629 35.07199219 375.78176758 34.32226562 376.36962891 C33.14180664 377.3004126 33.14180664 377.3004126 31.9375 378.25 C27.10621534 382.04642582 22.27187929 385.82727501 17.31640625 389.4609375 C16.58881104 389.99557617 15.86121582 390.53021484 15.11157227 391.08105469 C13.73024845 392.0910549 12.34417411 393.09459793 10.95288086 394.09082031 C6.54086212 397.3039443 6.54086212 397.3039443 4 402 C4.68964844 402.79921875 5.37929688 403.5984375 6.08984375 404.421875 C12.36688881 411.74228948 18.31497495 419.20941012 24 427 C28.76744353 423.95148064 33.08793357 420.55087872 37.4375 416.9375 C45.0779467 410.65154509 52.96095235 404.76362755 61 399 C59.53826174 394.43734878 56.9356959 391.2784041 53.8125 387.75 C52.82010734 386.60677539 51.82922577 385.46223735 50.83984375 384.31640625 C50.35628418 383.75711426 49.87272461 383.19782227 49.37451172 382.62158203 C46.87817982 379.67653114 44.55876665 376.5986436 42.2421875 373.51171875 C41.83226562 373.01285156 41.42234375 372.51398438 41 372 C39.18372928 372 37.9017945 373.55694649 36.52734375 374.640625 Z M100.9375 378.6875 C99.86588552 379.50781263 98.79427093 380.32812512 97.72265625 381.1484375 C97.13500488 381.60057617 96.54735352 382.05271484 95.94189453 382.51855469 C93.80643716 384.1476665 91.6525208 385.75032303 89.49609375 387.3515625 C87.95555658 388.50497785 86.41519086 389.65862225 84.875 390.8125 C84.12855225 391.36317139 83.38210449 391.91384277 82.61303711 392.48120117 C81.91315674 393.0094751 81.21327637 393.53774902 80.4921875 394.08203125 C79.86683105 394.54843018 79.24147461 395.0148291 78.59716797 395.49536133 C76.81214869 397.17696846 75.96297612 398.76097525 75 401 C75.83144531 401.96421875 76.66289062 402.9284375 77.51953125 403.921875 C78.61725353 405.19785987 79.71490612 406.47390469 80.8125 407.75 C81.35970703 408.38421875 81.90691406 409.0184375 82.47070312 409.671875 C90.41482221 418.91594085 90.41482221 418.91594085 90 425 C87.76953125 425.76953125 87.76953125 425.76953125 85 426 C82.82421875 424.26171875 82.82421875 424.26171875 80.6875 421.6875 C79.91535156 420.77613281 79.14320313 419.86476563 78.34765625 418.92578125 C75.41643678 415.2727307 72.53127586 411.58709734 69.7265625 407.8359375 C69.15679687 407.23007812 68.58703125 406.62421875 68 406 C63.7813754 406 61.87846067 408.39453457 58.875 411.0625 C57.70297266 412.07945159 56.52979219 413.0950757 55.35546875 414.109375 C54.78231934 414.60630859 54.20916992 415.10324219 53.61865234 415.61523438 C48.12660515 420.31370974 42.27088778 424.58028844 36.43359375 428.8359375 C35.72396484 429.41214844 35.72396484 429.41214844 35 430 C35 430.33 35 430.66 35 431 C42.90266799 431.3044635 50.80279457 431.5337694 58.70992088 431.67355824 C62.38395047 431.74073848 66.05390365 431.83141209 69.72558594 431.98071289 C86.05850357 432.62735833 99.63856095 433.08468552 112.42822266 421.37670898 C113.3009079 420.53222702 113.3009079 420.53222702 114.19122314 419.67068481 C117.222235 416.87107719 120.61081704 414.59045368 124 412.25 C125.12558241 411.44352057 126.25063278 410.63629775 127.375 409.828125 C130 408 130 408 132 407 C130.67239559 404.17254241 129.17795334 401.7533702 127.27734375 399.27734375 C126.47550659 398.22921509 126.47550659 398.22921509 125.6574707 397.15991211 C125.08988037 396.42651611 124.52229004 395.69312012 123.9375 394.9375 C123.35766357 394.1854126 122.77782715 393.4333252 122.18041992 392.65844727 C120.45977033 390.4340885 118.73193801 388.21557738 117 386 C116.51885742 385.38382812 116.03771484 384.76765625 115.54199219 384.1328125 C111.90744531 379.44970082 111.90744531 379.44970082 108 375 C104.89449371 375 103.3789925 376.81692046 100.9375 378.6875 Z " fill="#020203" transform="translate(324,25)"/>
<path d="M0 0 C1.31581055 0.0009668 1.31581055 0.0009668 2.65820312 0.00195312 C7.11962042 0.03154248 11.47690146 0.25180002 15.91015625 0.76171875 C19.42079505 1.14808821 22.11404046 1.04248997 25.5625 0.1875 C43.92435402 -1.19013106 60.50029282 3.31922188 74.8125 15.375 C85.07066853 25.12840151 90.63073553 37.18908995 91 51.375 C90.78014351 58.43396367 89.55502237 64.70976367 86.02622986 70.86889648 C84.33428975 74.70490377 84.19046964 77.38519279 84.19360352 81.56640625 C84.18983704 82.27940887 84.18607056 82.9924115 84.18218994 83.72702026 C84.17578454 85.26566253 84.17606197 86.80434441 84.18237495 88.34298706 C84.19152534 90.78174097 84.18121762 93.21973261 84.16575623 95.65844727 C84.12576125 102.58836768 84.12445448 109.5182255 84.12670898 116.44824219 C84.12676016 120.69580336 84.10755929 124.94295132 84.07737541 129.19039917 C84.0665778 131.5869241 84.07866208 133.98265141 84.09120178 136.37915039 C84.08229459 137.85563944 84.07221923 139.33212206 84.06079102 140.80859375 C84.06095718 142.0917749 84.06112335 143.37495605 84.06129456 144.69702148 C83.310082 149.95387774 80.87617196 153.00199115 77 156.5 C73.74820543 158.75124239 71.2794281 159.31237511 67.41880798 159.32121277 C66.15483437 159.32761024 66.15483437 159.32761024 64.86532593 159.33413696 C63.94417999 159.33368378 63.02303406 159.33323059 62.07397461 159.33276367 C61.10139206 159.33612228 60.12880951 159.3394809 59.12675476 159.34294128 C55.90610484 159.35245464 52.68550685 159.35439439 49.46484375 159.35546875 C47.23189777 159.35868032 44.998952 159.36204431 42.76600647 159.36555481 C38.08447786 159.37154652 33.40296772 159.37339459 28.72143555 159.37280273 C22.70973153 159.37270094 16.69814516 159.38637088 10.68646908 159.40357494 C6.07552033 159.41466685 1.46460033 159.41672284 -3.1463604 159.41619301 C-5.36362553 159.41737669 -7.58089133 159.42182005 -9.79814339 159.42952538 C-12.89163716 159.4392716 -15.98487161 159.4364689 -19.07836914 159.43041992 C-20.46312439 159.43884918 -20.46312439 159.43884918 -21.87585449 159.44744873 C-23.13559837 159.441157 -23.13559837 159.441157 -24.42079163 159.43473816 C-25.15248597 159.43528293 -25.88418032 159.43582769 -26.63804722 159.43638897 C-28.4375 159.1875 -28.4375 159.1875 -30.4375 157.1875 C-29.86931818 151.61931818 -29.86931818 151.61931818 -28.4375 150.1875 C-25.44566675 150.07279732 -22.47598706 150.02263413 -19.4831543 150.01391602 C-18.5433371 150.007229 -17.6035199 150.00054199 -16.63522339 149.99365234 C-14.58683781 149.97956553 -12.53843619 149.96768316 -10.49002647 149.95770454 C-7.2501127 149.94134766 -4.0103175 149.91811156 -0.77046204 149.89280701 C8.44389982 149.82188846 17.65831075 149.76190645 26.87280273 149.71069336 C32.50204127 149.67892301 38.1311452 149.63764904 43.76027489 149.59049797 C45.90887214 149.57446225 48.05750046 149.56214797 50.20614052 149.55359077 C53.21088972 149.54145367 56.21532197 149.51730945 59.2199707 149.49047852 C60.55657494 149.4895948 60.55657494 149.4895948 61.92018127 149.48869324 C63.15052094 149.47411575 63.15052094 149.47411575 64.40571594 149.45924377 C65.11604131 149.45501184 65.82636667 149.4507799 66.55821705 149.44641972 C68.93008991 149.14001355 70.53034605 148.43654747 72.5625 147.1875 C74.04669368 144.21911264 73.68729421 141.5466047 73.68847656 138.234375 C73.6903447 137.51862808 73.69221283 136.80288116 73.69413757 136.06544495 C73.69814619 134.50763306 73.70021683 132.94981528 73.70059967 131.39199829 C73.70401713 128.07039246 73.72539081 124.74898201 73.74583054 121.42744446 C73.78380118 115.2434344 73.81512541 109.05962818 73.81298828 102.87548828 C73.81219711 98.57404255 73.83574303 94.27330613 73.8748703 89.9720459 C73.88527676 88.33918454 73.88689408 86.70624074 73.87921906 85.07336426 C73.84401628 76.7473855 73.82693817 69.55751682 78.40081787 62.25463867 C81.66780966 56.4412368 80.90076091 49.10046806 79.41015625 42.83203125 C76.87210931 34.91379263 73.33095669 27.37364723 66.609375 22.21875 C64.4043923 20.90233616 64.4043923 20.90233616 60.9375 21.3125 C58.86506171 22.07342234 58.86506171 22.07342234 56.5625 23.1875 C55.47324219 23.65027344 54.38398437 24.11304688 53.26171875 24.58984375 C39.31217215 30.9577893 31.43905003 40.03188077 25.9375 54.3125 C24.5625 57.1875 24.5625 57.1875 22.625 58.3125 C19.84948427 58.14428693 18.60066265 57.00728808 16.5625 55.1875 C17.03212423 42.9772699 23.97137798 33.3945818 32.5625 25.1875 C37.82573395 20.52398828 43.16860922 17.09381399 49.5625 14.1875 C39.97363696 10.2196946 30.19944831 9.41082896 20.375 13.1875 C14.20908876 16.08086209 8.87793398 19.96370333 3.5625 24.1875 C2.72589844 24.81269531 1.88929688 25.43789063 1.02734375 26.08203125 C-7.55951942 33.41692705 -13.00786066 43.85776425 -17 54.25 C-18.4375 57.1875 -18.4375 57.1875 -20.375 58.3125 C-22.4375 58.1875 -22.4375 58.1875 -24.75 57.3125 C-26.4375 55.1875 -26.4375 55.1875 -26.5625 51.25 C-24.92699656 41.19165383 -18.85282228 32.80951385 -12.4375 25.1875 C-11.2928125 23.6715625 -11.2928125 23.6715625 -10.125 22.125 C-6.30933488 17.95438929 -1.91835904 14.61557468 2.5625 11.1875 C-11.64186317 10.09298571 -24.88564912 13.80001751 -36.4375 22.1875 C-37.36304688 22.8578125 -38.28859375 23.528125 -39.2421875 24.21875 C-48.80706429 31.58033539 -54.15152728 39.48130603 -58.39453125 50.71875 C-59.4375 53.1875 -59.4375 53.1875 -61.4375 55.1875 C-67.00568182 54.61931818 -67.00568182 54.61931818 -68.4375 53.1875 C-69.23138826 43.05597369 -63.23121739 34.11749201 -57.1875 26.375 C-52.49838636 20.91651539 -47.16717021 16.5249139 -41.4375 12.1875 C-61.79523571 11.14795605 -81.14470415 17.41763818 -96.4375 31.1875 C-97.05882812 31.70570313 -97.68015625 32.22390625 -98.3203125 32.7578125 C-104.59548382 38.38101797 -108.55115341 46.18710106 -110.625 54.3125 C-111.4375 57.1875 -111.4375 57.1875 -114.4375 59.1875 C-117.39826291 58.82861965 -118.28408021 58.34091979 -120.4375 56.1875 C-121.61605276 48.4427247 -117.9732964 41.14535592 -113.86328125 34.73046875 C-112.14763557 32.44694035 -110.34568906 30.31244076 -108.4375 28.1875 C-107.79167969 27.44886719 -107.14585937 26.71023438 -106.48046875 25.94921875 C-96.17541913 14.87941591 -83.63758787 8.68357004 -69.4375 4.1875 C-68.43976563 3.8471875 -67.44203125 3.506875 -66.4140625 3.15625 C-53.485944 -0.58701219 -38.49028483 0.40741901 -25.22265625 1.828125 C-20.64788572 2.25232285 -17.08003626 1.86149108 -12.67138672 0.68115234 C-8.4887841 -0.24313427 -4.26337701 -0.05925689 0 0 Z " fill="#020202" transform="translate(543.4375,248.8125)"/>
<path d="M0 0 C0.86858139 -0.01283524 1.73716278 -0.02567047 2.63206482 -0.03889465 C3.57985306 -0.04628159 4.5276413 -0.05366852 5.50415039 -0.0612793 C6.47784073 -0.06935104 7.45153107 -0.07742279 8.45472717 -0.08573914 C10.52530119 -0.09960632 12.59589832 -0.11031661 14.66650391 -0.11816406 C17.80750374 -0.13525696 20.94741798 -0.17910444 24.08813477 -0.22338867 C26.10179891 -0.23352593 28.11547201 -0.24203879 30.12915039 -0.2487793 C31.05872055 -0.26628738 31.98829071 -0.28379547 32.94602966 -0.30183411 C41.02686207 -0.27547701 47.44016247 1.9483057 54.22680664 6.30200195 C59.46993864 11.91093386 62.19335401 17.57058719 62.47680664 25.30200195 C62.18085502 31.5329834 60.71077658 36.19069332 56.41821289 40.7746582 C53.81353326 43.1065285 52.47684231 44.17700195 48.91430664 44.17700195 C48.91430664 44.83700195 48.91430664 45.49700195 48.91430664 46.17700195 C49.93524414 46.26981445 49.93524414 46.26981445 50.97680664 46.36450195 C56.99772715 48.02986295 60.74698082 51.26774451 63.85180664 56.67700195 C66.95770116 63.61109204 67.31524252 70.80798157 64.99243164 78.05200195 C61.34072839 86.01935449 56.0495284 89.94884846 48.16040039 93.38012695 C44.20436624 94.78365907 40.41642086 95.30215691 36.23168945 95.30639648 C35.33436096 95.30954865 34.43703247 95.31270081 33.51251221 95.31594849 C32.55713562 95.31392426 31.60175903 95.31190002 30.61743164 95.30981445 C29.13336823 95.31124954 29.13336823 95.31124954 27.61932373 95.31271362 C25.53487077 95.3133926 23.45041567 95.31155804 21.3659668 95.30737305 C18.16198034 95.30199805 14.95813263 95.30733925 11.75415039 95.3137207 C9.7294105 95.31306032 7.70467069 95.31177998 5.67993164 95.30981445 C4.71645813 95.31183868 3.75298462 95.31386292 2.76031494 95.31594849 C1.43323517 95.31122025 1.43323517 95.31122025 0.0793457 95.30639648 C-1.09383209 95.30520309 -1.09383209 95.30520309 -2.29071045 95.3039856 C-4.08569336 95.17700195 -4.08569336 95.17700195 -5.08569336 94.17700195 C-5.18626027 91.2909418 -5.22184711 88.42877621 -5.21508789 85.54223633 C-5.21684021 84.63661453 -5.21859253 83.73099274 -5.22039795 82.79792786 C-5.2248179 79.78885002 -5.22187797 76.77983044 -5.21850586 73.77075195 C-5.21917886 71.6894937 -5.22014885 69.60823552 -5.22140503 67.52697754 C-5.2228822 63.15884658 -5.22072684 58.79073602 -5.21606445 54.42260742 C-5.21036716 48.80985642 -5.21364606 43.19715323 -5.21963692 37.58440399 C-5.22324202 33.28488807 -5.22210418 28.98538357 -5.21950912 24.68586731 C-5.21883972 22.61570734 -5.21966876 20.54554635 -5.22198868 18.47538757 C-5.22451438 15.58748609 -5.22067578 12.69966318 -5.21508789 9.81176758 C-5.21711212 8.94731522 -5.21913635 8.08286285 -5.22122192 7.19221497 C-5.1955425 0.06667992 -5.1955425 0.06667992 0 0 Z M7.91430664 11.17700195 C7.91430664 21.07700195 7.91430664 30.97700195 7.91430664 41.17700195 C12.36930664 41.23887695 16.82430664 41.30075195 21.41430664 41.36450195 C23.49775391 41.40546997 23.49775391 41.40546997 25.62329102 41.44726562 C33.44823719 41.49975553 40.18431163 41.51436591 46.28930664 36.05200195 C49.2646384 30.78795345 50.49182842 26.34270864 48.91430664 20.42700195 C46.4418203 16.40921165 43.75874323 13.18385092 39.14379883 11.55029297 C36.13356612 11.04628007 33.23187148 11.06596 30.17993164 11.0793457 C29.01236328 11.08184326 27.84479492 11.08434082 26.6418457 11.08691406 C25.16425781 11.09601807 23.68666992 11.10512207 22.16430664 11.11450195 C15.11055664 11.14543945 15.11055664 11.14543945 7.91430664 11.17700195 Z M7.91430664 51.17700195 C7.91430664 62.06700195 7.91430664 72.95700195 7.91430664 84.17700195 C12.86430664 84.23887695 17.81430664 84.30075195 22.91430664 84.36450195 C25.23268555 84.40546997 25.23268555 84.40546997 27.59790039 84.44726562 C36.09037468 84.4986314 42.87809542 84.42351967 49.78930664 78.86450195 C53.02230468 74.77571032 54.18326891 71.34775676 53.78930664 66.17700195 C52.99802053 61.46525286 51.189214 57.83292289 47.23461914 54.9543457 C41.61704765 51.59103574 37.42256462 51.05196696 30.96118164 51.0793457 C29.1489209 51.08309204 29.1489209 51.08309204 27.30004883 51.08691406 C25.00535645 51.10057007 25.00535645 51.10057007 22.66430664 51.11450195 C17.79680664 51.13512695 12.92930664 51.15575195 7.91430664 51.17700195 Z " fill="#020202" transform="translate(288.085693359375,495.822998046875)"/>
<path d="M0 0 C49.76470588 0 49.76470588 0 59.3125 6.125 C64.38444693 11.5508037 67.27301256 17.18659699 67.5 24.6875 C67.10642369 32.23991035 64.27141189 37.72858811 59 43 C56.1875 43.875 56.1875 43.875 54 44 C54 44.66 54 45.32 54 46 C55.0209375 46.0928125 55.0209375 46.0928125 56.0625 46.1875 C62.11914603 47.86274252 65.84182209 51.10779274 68.9375 56.5625 C72.12099852 63.61242576 72.2296691 71.12247617 69.75 78.4375 C66.14497778 85.77629523 61.34233221 89.54180209 54 93 C36.52546203 97.36863449 18.01234145 95 0 95 C0 63.65 0 32.3 0 0 Z M12 11 C11.97534254 15.1117256 11.95716041 19.22342278 11.94506836 23.33520508 C11.9400292 24.73495228 11.93319784 26.1346942 11.92456055 27.53442383 C11.9124768 29.54245777 11.90730193 31.55052957 11.90234375 33.55859375 C11.89710693 34.76829834 11.89187012 35.97800293 11.88647461 37.22436523 C11.68224715 39.90812017 11.68224715 39.90812017 13 41 C17.53500722 41.28402968 22.08217293 41.2319191 26.625 41.25 C27.89730469 41.270625 29.16960937 41.29125 30.48046875 41.3125 C38.78981323 41.34715837 44.30961801 41.11632257 50.8125 35.625 C54.15504862 31.61394166 55 29.38469505 55 24.125 C54.23560499 19.37675808 51.77413347 15.92752491 48 13 C43.48205138 11.17546766 39.70540782 10.76320164 34.8515625 10.8046875 C34.19417084 10.8075174 33.53677917 10.81034729 32.85946655 10.81326294 C30.78111767 10.82436553 28.70321634 10.84945014 26.625 10.875 C25.20703752 10.88504269 23.78906821 10.89416627 22.37109375 10.90234375 C18.91391963 10.92427195 15.45700358 10.95873182 12 11 Z M12 51 C12 61.89 12 72.78 12 84 C19.6725 84.0928125 19.6725 84.0928125 27.5 84.1875 C29.09779297 84.21481201 30.69558594 84.24212402 32.34179688 84.27026367 C44.59264236 84.43431378 44.59264236 84.43431378 54.875 78.3125 C58.15464683 73.20010935 59.39810811 69.34883784 58.375 63.3125 C56.40972447 58.57797258 54.49224917 55.8889995 50.0625 53.25 C44.95435487 51.1650428 40.44882713 50.87894116 34.94921875 50.90234375 C33.74354248 50.90484131 32.53786621 50.90733887 31.2956543 50.90991211 C29.77496338 50.91901611 28.25427246 50.92812012 26.6875 50.9375 C21.840625 50.958125 16.99375 50.97875 12 51 Z " fill="#000000" transform="translate(97,496)"/>
<path d="M0 0 C3.63 0 7.26 0 11 0 C11 31.35 11 62.7 11 95 C7.37 95 3.74 95 0 95 C-0.495 90.545 -0.495 90.545 -1 86 C-1.66 86.7425 -2.32 87.485 -3 88.25 C-8.61879877 93.88480674 -15.76790826 96.11529994 -23.5625 96.3125 C-33.98779871 96.16049078 -41.34241253 92.71556505 -48.83203125 85.51171875 C-56.48203675 76.6487394 -57.70593806 67.33422771 -57 56 C-55.44528272 46.57946734 -50.42374352 39.26365962 -43.03515625 33.3203125 C-34.74225717 27.94027433 -25.96268041 26.84299673 -16.3671875 28.4375 C-9.16374139 30.19981098 -7.06415293 32.69386618 -1 38 C-0.67 25.46 -0.34 12.92 0 0 Z M-41.58984375 49.00390625 C-45.62734578 54.7190407 -45.86484026 61.21928434 -45 68 C-42.89335715 75.12781587 -39.39399452 79.1415016 -33.0859375 82.94140625 C-27.42675796 85.81338688 -20.80205574 86.07703285 -14.7109375 84.3515625 C-8.28719337 81.44971669 -4.53478007 76.71144478 -1.125 70.6875 C0.95331413 63.87524814 0.91600223 58.28697684 -2.0625 51.75 C-5.57800527 45.41611514 -10.09674206 41.29076721 -17 39 C-27.8224351 37.60877516 -34.81177296 40.58921701 -41.58984375 49.00390625 Z " fill="#000000" transform="translate(645,496)"/>
<path d="M0 0 C7.50092289 5.37026207 11.84455176 12.46985434 13.5390625 21.55859375 C13.5390625 25.51859375 13.5390625 29.47859375 13.5390625 33.55859375 C-2.6309375 33.88859375 -18.8009375 34.21859375 -35.4609375 34.55859375 C-31.88435669 44.26108626 -31.88435669 44.26108626 -24.2109375 50.43359375 C-18.16767517 52.24657245 -13.05321458 52.56316856 -7.2109375 49.93359375 C-3.34287001 47.78294822 -1.04721995 45.11473212 1.5390625 41.55859375 C3.02191492 42.51121409 4.50024451 43.4708778 5.9765625 44.43359375 C6.80027344 44.96726562 7.62398438 45.5009375 8.47265625 46.05078125 C10.5390625 47.55859375 10.5390625 47.55859375 11.5390625 49.55859375 C6.1034606 56.81206251 -0.37076331 61.84444662 -9.4609375 63.55859375 C-20.63247587 64.4103826 -29.70069992 62.89527979 -38.41796875 55.58203125 C-45.88599032 48.18540568 -48.73305103 40.23022522 -48.8359375 29.74609375 C-48.81259226 19.62593214 -45.7746665 11.67091786 -39.109375 4.00390625 C-28.85506384 -6.14937722 -12.11630903 -7.09669529 0 0 Z M-32.8359375 13.99609375 C-34.59898013 16.77627636 -35.57828032 19.39573886 -36.4609375 22.55859375 C-35.28264165 23.96484926 -35.28264165 23.96484926 -31.95092773 23.67211914 C-30.39045328 23.67196001 -28.82997357 23.66626517 -27.26953125 23.65625 C-26.44969254 23.65483505 -25.62985382 23.6534201 -24.78517151 23.65196228 C-22.15622368 23.64634664 -19.52735977 23.63379154 -16.8984375 23.62109375 C-15.12044393 23.61608076 -13.34244904 23.61151751 -11.56445312 23.60742188 C-7.19658205 23.59637214 -2.82877402 23.57909706 1.5390625 23.55859375 C1.08527222 21.64796143 1.08527222 21.64796143 0.62231445 19.69873047 C0.4521431 18.98224335 0.28197174 18.26575623 0.10664368 17.52755737 C-0.59119542 15.10672339 -1.58512871 13.54563352 -3.2734375 11.68359375 C-3.99466797 10.85214844 -3.99466797 10.85214844 -4.73046875 10.00390625 C-9.19101792 6.27839114 -14.08549152 6.07037779 -19.671875 6.17578125 C-25.32307293 6.95143587 -28.95480691 10.01282815 -32.8359375 13.99609375 Z " fill="#010101" transform="translate(475.4609375,528.44140625)"/>
<path d="M0 0 C5.96220505 4.69012049 9.05584606 10.77885598 10.01159668 18.29669189 C10.12665163 21.15736476 10.11911056 23.98929435 10.05859375 26.8515625 C10.05293396 27.88062714 10.04727417 28.90969177 10.04144287 29.96994019 C10.01925578 33.22003974 9.9690929 36.46899011 9.91796875 39.71875 C9.89788091 41.93748395 9.87963417 44.15623538 9.86328125 46.375 C9.81944898 51.7816851 9.75054535 57.18752349 9.66796875 62.59375 C6.03796875 62.59375 2.40796875 62.59375 -1.33203125 62.59375 C-2.30811342 59.66550348 -2.41429793 57.63761724 -2.33203125 54.59375 C-2.74453125 54.99207031 -3.15703125 55.39039063 -3.58203125 55.80078125 C-10.9039788 62.51801438 -17.19712567 64.21381682 -27.14453125 63.9375 C-33.787157 63.2211384 -38.40927546 60.97702429 -42.83203125 55.96875 C-47.49397072 50.037727 -46.90765901 43.94533878 -46.33203125 36.59375 C-44.90273303 31.51371416 -41.43429626 28.38883687 -37.12109375 25.58984375 C-27.05133616 19.98331933 -13.37922796 20.53845759 -2.33203125 22.59375 C-3.82047224 15.5065787 -3.82047224 15.5065787 -8.26953125 10.03125 C-14.31588177 7.1931671 -19.93779952 6.59608458 -26.39453125 8.78125 C-30.38319973 10.3984879 -33.18641394 12.68405399 -36.33203125 15.59375 C-38.97203125 13.28375 -41.61203125 10.97375 -44.33203125 8.59375 C-34.1327196 -5.09479985 -14.91823495 -8.99592057 0 0 Z M-32.76953125 36.28125 C-34.65040221 39.06493903 -34.89895695 41.29197072 -34.71875 44.62890625 C-34.0936286 47.80502813 -32.68159791 49.43468875 -30.33203125 51.59375 C-25.62048866 54.34214985 -20.46265161 54.23984426 -15.25 53.1640625 C-9.80542173 51.47759657 -6.14540893 48.57481213 -3.33203125 43.59375 C-1.25137862 37.55429761 -1.25137862 37.55429761 -2.33203125 31.59375 C-5.68602974 31.5058546 -9.03972765 31.45306121 -12.39453125 31.40625 C-13.33748047 31.38111328 -14.28042969 31.35597656 -15.25195312 31.33007812 C-22.2888537 31.25652167 -26.89998225 32.21771608 -32.76953125 36.28125 Z " fill="#010101" transform="translate(555.33203125,528.40625)"/>
<path d="M0 0 C24.42 0 48.84 0 74 0 C74 3.63 74 7.26 74 11 C66.91323612 18.08676388 54.01624439 12.65461226 44 13 C43.67 40.06 43.34 67.12 43 95 C39.04 95 35.08 95 31 95 C31 67.61 31 40.22 31 12 C21.1 12 11.2 12 1 12 C0.67 11.67 0.34 11.34 0 11 C0 7.37 0 3.74 0 0 Z " fill="#020202" transform="translate(185,496)"/>
<path d="M0 0 C6.65956552 3.46852371 12.78618909 7.67928364 17 14 C18.32 14 19.64 14 21 14 C20.69964844 13.31292969 20.39929687 12.62585938 20.08984375 11.91796875 C19.70957031 11.01691406 19.32929687 10.11585938 18.9375 9.1875 C18.55464844 8.29417969 18.17179687 7.40085937 17.77734375 6.48046875 C17 4 17 4 18 1 C20.25137439 1.62003092 22.50105526 2.24621341 24.75 2.875 C26.00296875 3.22304688 27.2559375 3.57109375 28.546875 3.9296875 C31.24953641 4.76739025 33.5469357 5.62479728 36 7 C36.33 5.35 36.66 3.7 37 2 C46.24865013 3.62959214 54.43380042 5.5205605 60.66015625 12.9921875 C63.47303579 17.1449066 64 18.70969036 64 24 C90.07 24 116.14 24 143 24 C143 25.32 143 26.64 143 28 C116.93 28 90.86 28 64 28 C63.67 29.98 63.34 31.96 63 34 C58.64336356 41.02976846 52.94229985 44.99917485 45 47 C41.97257938 47.52026784 39.07302117 47.80174057 36 48 C35 46 35 46 35 43 C34.27554688 43.27714844 33.55109375 43.55429687 32.8046875 43.83984375 C23.20210896 47.43760984 23.20210896 47.43760984 18 48 C16.7922442 44.37673261 17.45688872 43.35853631 19 40 C18.3709375 40.34933594 17.741875 40.69867187 17.09375 41.05859375 C11.59021685 43.98441785 7.23116607 45.65382411 1 46 C1.33 45.01 1.66 44.02 2 43 C4.546875 41.75390625 4.546875 41.75390625 7.75 40.5625 C12.17639687 38.91077802 15.43066465 37.11325361 19 34 C15.18410185 31.79679298 15.18410185 31.79679298 11 31 C8.20414701 32.39568981 5.97493973 34.13184665 3.52734375 36.0703125 C-1.25286922 39.72011962 -5.97291192 42 -12 42 C-12 41.01 -12 40.02 -12 39 C-9.87717331 37.99539469 -7.75166979 36.99644398 -5.625 36 C-4.44164063 35.443125 -3.25828125 34.88625 -2.0390625 34.3125 C1 33 1 33 3 33 C3 32.34 3 31.68 3 31 C2.0925 30.896875 1.185 30.79375 0.25 30.6875 C-3 30 -3 30 -4.59375 28.53125 C-8.36460732 26.13161352 -12.36324551 26.16564346 -16.75 25.8125 C-17.63816406 25.73064453 -18.52632812 25.64878906 -19.44140625 25.56445312 C-21.62684071 25.36470912 -23.81262449 25.1769855 -26 25 C-25.67 23.68 -25.34 22.36 -25 21 C-21.04 21 -17.08 21 -13 21 C-12.67 20.01 -12.34 19.02 -12 18 C-10.68 17.01 -9.36 16.02 -8 15 C-12.95 11.7 -17.9 8.4 -23 5 C-22.67 4.01 -22.34 3.02 -22 2 C-16.68774915 3.8651469 -12.5072846 6.99932604 -7.9375 10.22265625 C-3.34577357 13.00089498 0.53244395 13.12611513 5.8125 13.0625 C7.27623047 13.04896484 7.27623047 13.04896484 8.76953125 13.03515625 C9.50558594 13.02355469 10.24164063 13.01195312 11 13 C9.75160501 11.894019 8.50120766 10.79029799 7.25 9.6875 C6.55390625 9.07261719 5.8578125 8.45773437 5.140625 7.82421875 C3.14885494 6.12685266 1.11101085 4.54522191 -1 3 C-0.67 2.01 -0.34 1.02 0 0 Z M22 6 C22.6724749 11.71603662 25.68942001 15.30395531 29.125 19.75 C33.11241919 22.87058893 37.06078027 23.3574219 42 24 C41.41092399 17.81470187 39.10983657 13.99879254 34.625 9.75 C30.41723856 6.9448257 27.04518954 6 22 6 Z M41 6 C41.12307805 11.90774634 42.923403 14.97885998 46.9609375 19.265625 C51.18973511 22.86253331 55.44205665 24 61 24 C59.62973552 18.12743793 57.96410794 13.96315205 53.1171875 10.21875 C49.32531166 8.03597276 45.24106166 6.97279885 41 6 Z M-9 20 C-3.87618487 25.71002813 -3.87618487 25.71002813 3.09375 28.1796875 C5.06339869 28.18662288 7.03288041 28.10002303 9 28 C7.68 26.35 6.36 24.7 5 23 C6.65 21.02 8.3 19.04 10 17 C2.68870684 15.34461287 -2.2011529 17.0879938 -9 20 Z M9 22 C10.4595886 25.8480063 12.33899114 27.21206544 16 29 C19.62334129 30.33491521 20.94090059 30.0200337 24.6875 28.75 C28.1849837 27.2388208 28.1849837 27.2388208 30 24 C26.60584211 20.51881242 24.46225474 18.63434192 19.5 18.5 C15.44815642 18.71938916 12.48066789 19.85805053 9 22 Z M44 21 C44.66 22.32 45.32 23.64 46 25 C46.99 24.67 47.98 24.34 49 24 C47.62514468 22.45833358 47.62514468 22.45833358 46 21 C45.34 21 44.68 21 44 21 Z M46 26 C44.3553326 28.46326712 44.3553326 28.46326712 43 31 C44.99983534 30.20882096 44.99983534 30.20882096 47 29 C47.33 28.01 47.66 27.02 48 26 C47.34 26 46.68 26 46 26 Z M29 30 C26.03800548 32.79051063 23.29628667 36.11113999 22 40 C22.29236807 41.34291094 22.62170788 42.67871882 23 44 C33.52313847 40.22885107 33.52313847 40.22885107 40.3125 31.75 C40.88706047 30.50549748 41.45378811 29.25720278 42 28 C36.70378904 26.57906535 33.75572034 27.31950308 29 30 Z M43.6875 34.5 C40.70479763 38.87806157 40.70479763 38.87806157 40 44 C48.9595251 42.48683576 54.6050679 39.39876403 60 32 C60.85279338 29.78264561 60.85279338 29.78264561 61 28 C53.40276932 27.46686101 49.0502597 28.70242195 43.6875 34.5 Z " fill="#060606" transform="translate(36,632)"/>
<path d="M0 0 C0.99 0.495 0.99 0.495 2 1 C0.58340795 4.4339378 -1.01263605 5.98682127 -4.0625 8.0625 C-7.42187586 10.29474309 -7.42187586 10.29474309 -9 14 C-8.34 13.67 -7.68 13.34 -7 13 C-6.24332031 13.08378906 -5.48664063 13.16757812 -4.70703125 13.25390625 C4.61584097 14.24784269 9.59719643 10.606995 16.75 5.28515625 C19.55276943 3.31445899 20.81977846 2.63215545 24 2 C23.91015625 3.703125 23.91015625 3.703125 23 6 C20.83482726 7.73673882 18.75452694 9.25089089 16.4375 10.75 C15.82197266 11.16121094 15.20644531 11.57242188 14.57226562 11.99609375 C13.05495359 13.00763511 11.52833914 14.00519789 10 15 C10.825 15.61875 11.65 16.2375 12.5 16.875 C13.325 17.57625 14.15 18.2775 15 19 C15 19.66 15 20.32 15 21 C18.63 21 22.26 21 26 21 C26.33 22.32 26.66 23.64 27 25 C25.15535156 25.14695312 25.15535156 25.14695312 23.2734375 25.296875 C21.64054288 25.44702623 20.00773452 25.59811772 18.375 25.75 C17.56675781 25.811875 16.75851562 25.87375 15.92578125 25.9375 C10.51397939 26.46548067 7.48869677 27.76181993 3 31 C1.68 31 0.36 31 -1 31 C-1 31.66 -1 32.32 -1 33 C-0.28457031 33.27585937 0.43085937 33.55171875 1.16796875 33.8359375 C3.95738855 34.98248522 6.62290358 36.26227115 9.3125 37.625 C10.19550781 38.07101562 11.07851563 38.51703125 11.98828125 38.9765625 C12.65214844 39.31429687 13.31601562 39.65203125 14 40 C13.67 40.66 13.34 41.32 13 42 C8.52824169 41.45916787 5.28772153 40.34037191 1.375 38.125 C0.45460938 37.61195313 -0.46578125 37.09890625 -1.4140625 36.5703125 C-4 35 -4 35 -6.0703125 33.28515625 C-8.45361966 31.69789298 -9.47806013 31.80431102 -12.25 32.3125 C-13.4875 32.539375 -14.725 32.76625 -16 33 C-16 33.66 -16 34.32 -16 35 C-10.98023808 39.02128067 -4.89669264 41.55669449 1 44 C0.67 44.66 0.34 45.32 0 46 C-5.78999819 45.51750015 -9.93932955 43.79209404 -15 41 C-15.66 40.67 -16.32 40.34 -17 40 C-16.34 42.31 -15.68 44.62 -15 47 C-18.89464844 48.29821615 -20.63239324 47.38806977 -24.5 46.125 C-25.6446875 45.75632812 -26.789375 45.38765625 -27.96875 45.0078125 C-29.97942402 44.33931521 -31.9898436 43.67005213 -34 43 C-33.505 44.98 -33.505 44.98 -33 47 C-39.8545591 48.82209799 -46.19279923 46.48304946 -52.3125 43.25 C-58.06099539 38.43730619 -60.73173415 35.6095951 -62 28 C-87.41 28 -112.82 28 -139 28 C-139 26.68 -139 25.36 -139 24 C-113.59 24 -88.18 24 -62 24 C-61.67 21.69 -61.34 19.38 -61 17 C-58.43793588 11.26009669 -53.67410556 7.45099813 -48 5 C-43.70444016 3.77340092 -39.38951732 2.8230345 -35 2 C-34.505 4.475 -34.505 4.475 -34 7 C-33.05640625 6.60167969 -33.05640625 6.60167969 -32.09375 6.1953125 C-26.77088028 3.9988271 -21.62102764 2.24911725 -16 1 C-14.76406109 4.70781672 -15.4321868 5.67510253 -16.9375 9.1875 C-17.31777344 10.08855469 -17.69804688 10.98960937 -18.08984375 11.91796875 C-18.54037109 12.94857422 -18.54037109 12.94857422 -19 14 C-17.68 14.33 -16.36 14.66 -15 15 C-14.62875 14.1646875 -14.62875 14.1646875 -14.25 13.3125 C-10.81382592 6.95557796 -6.00249682 3.73232174 0 0 Z M-34.14453125 10.80078125 C-37.96336718 14.94120337 -39.96318364 18.47031272 -41 24 C-34.97878723 23.73239054 -30.6192813 23.20867852 -26 19 C-21.33466203 12.58888124 -21.33466203 12.58888124 -20 5 C-25.08420506 5 -30.32137055 7.59044048 -34.14453125 10.80078125 Z M-55.30078125 14.015625 C-57.95042466 17.10992121 -58.905469 20.10073331 -60 24 C-54.40326161 24.28948647 -50.7972233 24.23291136 -46 21 C-42.69521722 17.72684194 -39.77271651 14.33981069 -38 10 C-38 8.68 -38 7.36 -38 6 C-45.01707943 6 -50.29533383 9.41336686 -55.30078125 14.015625 Z M-9 17 C-9 17.66 -9 18.32 -9 19 C-7.7625 19.7425 -7.7625 19.7425 -6.5 20.5 C-5.675 20.995 -4.85 21.49 -4 22 C-4 24 -4 24 -6 26.125 C-6.66 26.74375 -7.32 27.3625 -8 28 C-6.87034007 29.33496725 -6.87034007 29.33496725 -3.9375 29.375 C1.11687098 28.89363133 3.95835694 26.89943959 8 24 C8.99 23.34 9.98 22.68 11 22 C10.67 21.01 10.34 20.02 10 19 C3.6133192 15.97473015 -2.0951765 14.69839217 -9 17 Z M-29 24 C-29 24.66 -29 25.32 -29 26 C-25.06282862 29.34659568 -22.02275855 30.66183029 -16.95703125 30.390625 C-12.66610083 29.53415186 -9.85211439 27.02253727 -7.125 23.75 C-6.568125 22.88375 -6.568125 22.88375 -6 22 C-14.65829608 16.84186617 -21.96455295 15.51349199 -29 24 Z M-45 22 C-45.33 22.99 -45.66 23.98 -46 25 C-45.01 24.67 -44.02 24.34 -43 24 C-43 23.34 -43 22.68 -43 22 C-43.66 22 -44.32 22 -45 22 Z M-46 26 C-45.34 27.32 -44.68 28.64 -44 30 C-43.34 30 -42.68 30 -42 30 C-42.33 28.68 -42.66 27.36 -43 26 C-43.99 26 -44.98 26 -46 26 Z M-59 27 C-58.7538007 32.04708568 -57.13162391 34.79307654 -53.8046875 38.390625 C-48.86746487 42.79351617 -43.48424084 44.4596466 -37 45 C-37.70181535 39.21002337 -40.26375566 34.6905537 -44.375 30.6875 C-49.19046238 27.59184561 -53.31264769 26.7291737 -59 27 Z M-41 27 C-38.9276791 32.97316024 -36.12936686 37.19719353 -31 41 C-27.03272013 42.86501695 -23.39196132 44 -19 44 C-20.89182193 37.4216192 -22.7935208 32.73493814 -28.125 28.1875 C-32.37914967 26.43035123 -36.45768866 26.76185941 -41 27 Z " fill="#040404" transform="translate(711,632)"/>
<path d="M0 0 C3.96 0 7.92 0 12 0 C12.33 2.64 12.66 5.28 13 8 C13.45890625 7.59007812 13.9178125 7.18015625 14.390625 6.7578125 C15.00421875 6.21898437 15.6178125 5.68015625 16.25 5.125 C16.85328125 4.59132813 17.4565625 4.05765625 18.078125 3.5078125 C21.79472712 0.59194173 24.45298084 -0.26442719 29.1875 -0.1875 C30.06792969 -0.18105469 30.94835937 -0.17460938 31.85546875 -0.16796875 C34 0 34 0 35 1 C35.07226502 2.85287502 35.0838122 4.70833878 35.0625 6.5625 C35.05347656 7.57441406 35.04445313 8.58632813 35.03515625 9.62890625 C35.02355469 10.41136719 35.01195312 11.19382812 35 12 C34.27554688 12.03738281 33.55109375 12.07476563 32.8046875 12.11328125 C24.94245108 12.57381322 24.94245108 12.57381322 18 16 C14.52436305 20.63044536 12.92483024 25.30746936 12.79467773 31.03417969 C12.77473251 31.81468689 12.75478729 32.59519409 12.73423767 33.39935303 C12.70916893 34.6480014 12.70916893 34.6480014 12.68359375 35.921875 C12.66281265 36.78186096 12.64203156 37.64184692 12.62062073 38.52789307 C12.55536261 41.26851598 12.49635083 44.00923275 12.4375 46.75 C12.39429219 48.6106867 12.35067718 50.47136398 12.30664062 52.33203125 C12.19970558 56.88792523 12.09837149 61.4439134 12 66 C8.04 66 4.08 66 0 66 C0 44.22 0 22.44 0 0 Z " fill="#010101" transform="translate(379,525)"/>
<path d="M0 0 C4.82295129 4.01066476 7.6275369 8.92194911 9 15 C7.1875 18 7.1875 18 5 20 C2.65234375 19.7734375 2.65234375 19.7734375 0 19 C-1.37109375 17.0390625 -1.37109375 17.0390625 -2.4375 14.625 C-4.05038956 11.4841098 -4.86562224 10.10078332 -7.75 7.9375 C-13.36132225 6.31884935 -17.87202148 6.11668816 -23.3125 8.375 C-26.57154142 11.55824976 -27.65211096 14.47727301 -29.04296875 18.7578125 C-30 21 -30 21 -33 23 C-37.54054054 22.45945946 -37.54054054 22.45945946 -39 21 C-39.74731271 13.67633547 -37.0775946 9.1522125 -33.1875 3.25 C-24.18949288 -6.00509304 -10.80397148 -6.32564133 0 0 Z " fill="#030303" transform="translate(405,97)"/>
<path d="M0 0 C1.68869029 0.95863024 3.31790572 2.0205309 4.93359375 3.09765625 C4.27359375 4.41765625 3.61359375 5.73765625 2.93359375 7.09765625 C2.06734375 6.76765625 1.20109375 6.43765625 0.30859375 6.09765625 C-3.98411139 4.82574362 -7.22947664 4.25366157 -11.37890625 6.16015625 C-13.89454933 9.04848719 -14.00129334 11.32110763 -14.06640625 15.09765625 C-12.92989681 17.47399418 -11.92199596 19.24206654 -10.06640625 21.09765625 C-8.54712587 21.16945589 -7.02473143 21.18157632 -5.50390625 21.16015625 C-4.26447266 21.14662109 -4.26447266 21.14662109 -3 21.1328125 C-2.36191406 21.12121094 -1.72382813 21.10960937 -1.06640625 21.09765625 C-0.73640625 19.77765625 -0.40640625 18.45765625 -0.06640625 17.09765625 C-2.37640625 16.43765625 -4.68640625 15.77765625 -7.06640625 15.09765625 C-6.73640625 13.77765625 -6.40640625 12.45765625 -6.06640625 11.09765625 C-2.10640625 11.42765625 1.85359375 11.75765625 5.93359375 12.09765625 C6.65908395 22.254519 6.65908395 22.254519 3.62109375 25.78515625 C-1.40388979 27.57370971 -5.79175898 27.87472482 -11.06640625 27.09765625 C-15.49618296 24.96187105 -18.26254296 22.70752911 -20.06640625 18.09765625 C-20.74671736 13.08351138 -20.62008963 9.26890954 -18.44140625 4.66015625 C-13.50593922 -0.66495291 -6.8918294 -3.0094756 0 0 Z " fill="#060606" transform="translate(510.06640625,644.90234375)"/>
<path d="M0 0 C5.34740414 1.95385921 8.45618143 4.91236287 11 10 C11.35031691 15.34233293 11.49335294 18.69153137 8 23 C5.15784222 26.1974275 3.60224144 27.72342261 -0.625 28.453125 C-5.18903053 28.6267566 -8.32512421 28.31333519 -12.5 26.375 C-16.36274116 22.7053959 -18.12364837 19.30510501 -18.4375 14 C-18.25027669 9.73456459 -16.81006484 7.25375928 -14 4 C-9.44787756 0.06862153 -5.81719888 -0.95402062 0 0 Z M-11 7 C-13.56570589 10.42094119 -13.43708054 13.84773484 -13 18 C-11.20437595 20.75329021 -9.94745078 22.52627461 -7 24 C-3.62642666 24.50070321 -3.62642666 24.50070321 0 24 C2.8971941 21.68726558 2.8971941 21.68726558 5 19 C5.33 18.67 5.66 18.34 6 18 C6.52228971 13.56053748 6.29441099 11.48176344 3.9375 7.625 C-1.03842623 3.17842762 -5.77803133 2.67322596 -11 7 Z " fill="#040404" transform="translate(249,644)"/>
<path d="M0 0 C1.04671875 -0.01417969 2.0934375 -0.02835938 3.171875 -0.04296875 C7.01358205 0.24467175 9.85348542 1.27254217 13.0625 3.375 C14.99117087 6.3187608 14.6097051 8.77030159 14.25 12.1875 C12.875 14.625 12.875 14.625 11.25 16.1875 C10.59 16.1875 9.93 16.1875 9.25 16.1875 C9.683125 16.88617187 10.11625 17.58484375 10.5625 18.3046875 C11.119375 19.21476563 11.67625 20.12484375 12.25 21.0625 C12.806875 21.96742188 13.36375 22.87234375 13.9375 23.8046875 C15.25 26.1875 15.25 26.1875 15.25 28.1875 C12.625 28.8125 12.625 28.8125 9.25 28.1875 C7.45627538 25.72112864 6.10076316 23.20132092 4.7421875 20.47265625 C3.31556978 17.72244409 3.31556978 17.72244409 -0.75 17.1875 C-0.75 20.4875 -0.75 23.7875 -0.75 27.1875 C-2.40614657 27.56968767 -4.07457024 27.90145102 -5.75 28.1875 C-7.52449594 26.41300406 -6.88030072 23.83732739 -6.8828125 21.4375 C-6.88410156 20.2721875 -6.88539063 19.106875 -6.88671875 17.90625 C-6.88285156 16.6790625 -6.87898438 15.451875 -6.875 14.1875 C-6.87886719 12.9603125 -6.88273437 11.733125 -6.88671875 10.46875 C-6.88542969 9.3034375 -6.88414062 8.138125 -6.8828125 6.9375 C-6.88168457 5.85984375 -6.88055664 4.7821875 -6.87939453 3.671875 C-6.63705282 -0.98108577 -4.08625013 0.02491616 0 0 Z M-0.75 4.1875 C-1.94695276 5.16660585 -1.94695276 5.16660585 -1.8828125 7 C-1.88023437 7.721875 -1.87765625 8.44375 -1.875 9.1875 C-1.87757813 9.909375 -1.88015625 10.63125 -1.8828125 11.375 C-1.94695276 13.20839415 -1.94695276 13.20839415 -0.75 14.1875 C1.35860357 14.12345702 1.35860357 14.12345702 3.75 13.8125 C4.97203125 13.67714844 4.97203125 13.67714844 6.21875 13.5390625 C8.23930522 13.39024712 8.23930522 13.39024712 9.25 12.1875 C9.29080783 10.18791636 9.29254356 8.18704746 9.25 6.1875 C4.33417923 4.66796291 4.33417923 4.66796291 -0.75 4.1875 Z " fill="#070707" transform="translate(327.75,643.8125)"/>
<path d="M0 0 C4.35530464 3.76139947 6.51430725 6.51891959 7.25 12.3125 C6.94810541 17.74660264 4.66089706 21.57991488 0.6875 25.3125 C-3.98906411 27.00402319 -8.35252332 27.23678774 -13.25 26.375 C-17.3478357 24.25693572 -19.6358792 21.55206488 -21.75 17.5 C-22.48777538 12.88890387 -22.61045304 8.75973235 -20.23828125 4.6015625 C-15.06432413 -2.09030633 -7.50028227 -3.75014114 0 0 Z M-14.25 5.375 C-16.7790797 8.40989564 -17.25 9.89387435 -17.25 13.875 C-16.03702567 18.12041015 -14.83311824 19.80450213 -11.25 22.375 C-6.94725091 23.06651325 -5.04054688 22.89057405 -1.375 20.5 C1.53710658 17.58789342 1.71068305 16.7747223 2.125 12.5625 C2.07471117 9.10514316 1.77681412 8.41206658 -0.375 5.4375 C-5.49568159 1.76396756 -9.26157721 1.33033287 -14.25 5.375 Z " fill="#040404" transform="translate(423.25,645.625)"/>
<path d="M0 0 C1.67542976 0.28604898 3.34385343 0.61781233 5 1 C4.96519531 2.64548828 4.96519531 2.64548828 4.9296875 4.32421875 C4.91092079 5.778639 4.89272156 7.23306664 4.875 8.6875 C4.85824219 9.40873047 4.84148437 10.12996094 4.82421875 10.87304688 C4.78608431 15.04876781 5.1210081 18.2494138 7 22 C11.00254456 22.09181134 11.00254456 22.09181134 15 22 C16.58403524 20.41596476 16.21974935 18.7228362 16.31640625 16.52734375 C16.35830078 15.62822266 16.40019531 14.72910156 16.44335938 13.80273438 C16.48267578 12.85720703 16.52199219 11.91167969 16.5625 10.9375 C16.60568359 9.98810547 16.64886719 9.03871094 16.69335938 8.06054688 C16.79979276 5.70718647 16.90181008 3.35371646 17 1 C20.75 -0.125 20.75 -0.125 23 1 C23.10845027 4.04263267 23.18752063 7.08136204 23.25 10.125 C23.30027344 11.40890625 23.30027344 11.40890625 23.3515625 12.71875 C23.43800346 18.33741237 22.82600058 21.58220796 19 26 C14.75417853 28.83054764 10.98515163 28.77409187 6 28 C2.37740096 26.1162485 0.31024369 23.93073106 -1 20 C-1.09188685 18.53085066 -1.13066715 17.05795597 -1.1328125 15.5859375 C-1.13410156 14.74289062 -1.13539063 13.89984375 -1.13671875 13.03125 C-1.13285156 12.1546875 -1.12898438 11.278125 -1.125 10.375 C-1.12886719 9.49070312 -1.13273437 8.60640625 -1.13671875 7.6953125 C-1.13542969 6.85484375 -1.13414062 6.014375 -1.1328125 5.1484375 C-1.13168457 4.37677246 -1.13055664 3.60510742 -1.12939453 2.81005859 C-1 1 -1 1 0 0 Z " fill="#0B0B0B" transform="translate(279,644)"/>
<path d="M0 0 C6.50969247 0.09312865 11.30938567 1.06868281 15.9375 5.8125 C17.95361905 10.43277283 18.22876553 14.28440507 17.4375 19.25 C15.72204241 22.8788526 14.15757374 24.69609712 11 27.125 C7.2916202 28.2960673 4.58193371 28.36362776 0.71484375 28.3203125 C-0.45957275 28.31016113 -1.63398926 28.30000977 -2.84399414 28.28955078 C-3.74110107 28.27649902 -4.63820801 28.26344727 -5.5625 28.25 C-5.59136338 23.77084672 -5.60925187 19.29171709 -5.625 14.8125 C-5.63337891 13.53310547 -5.64175781 12.25371094 -5.65039062 10.93554688 C-5.65361328 9.72060547 -5.65683594 8.50566406 -5.66015625 7.25390625 C-5.66539307 6.12799072 -5.67062988 5.0020752 -5.67602539 3.84204102 C-5.48757338 -0.46074388 -3.88711621 0.07121434 0 0 Z M-0.5625 5.25 C-0.5625 11.52 -0.5625 17.79 -0.5625 24.25 C6.101224 24.85835834 6.101224 24.85835834 9.8125 22.1875 C12.93992834 18.68775876 13.52076185 16.91266365 13.4375 12.25 C11.84911066 8.67612398 10.72115642 7.43910428 7.4375 5.25 C4.7975 5.25 2.1575 5.25 -0.5625 5.25 Z " fill="#030303" transform="translate(366.5625,643.75)"/>
<path d="M0 0 C1.32 0 2.64 0 4 0 C4.04898437 1.25296875 4.09796875 2.5059375 4.1484375 3.796875 C4.22348583 5.44793821 4.29903277 7.09897881 4.375 8.75 C4.4059375 9.575 4.436875 10.4 4.46875 11.25 C4.50742187 12.04921875 4.54609375 12.8484375 4.5859375 13.671875 C4.6173584 14.4050293 4.6487793 15.13818359 4.68115234 15.89355469 C5.03772523 18.24922918 5.83662883 19.93450591 7 22 C9.64 22 12.28 22 15 22 C16.14654482 19.70691037 16.19729117 18.20090344 16.31640625 15.6484375 C16.35830078 14.79765625 16.40019531 13.946875 16.44335938 13.0703125 C16.48267578 12.18085937 16.52199219 11.29140625 16.5625 10.375 C16.60568359 9.4778125 16.64886719 8.580625 16.69335938 7.65625 C16.79956861 5.43765717 16.90161194 3.2189512 17 1 C18.65614657 0.61781233 20.32457024 0.28604898 22 0 C24.22634899 2.22634899 23.23239712 7.26191066 23.25 10.25 C23.270625 11.10980469 23.29125 11.96960938 23.3125 12.85546875 C23.34247995 17.71971597 23.24799159 21.10826233 20 25 C17.11429544 27.73004414 15.07756526 28.45074685 11.125 28.5 C7.49225799 28.39804712 5.29042444 27.97398424 2.4375 25.6875 C-0.64769477 22.285875 -1.12635983 20.01339056 -1.1328125 15.5859375 C-1.13410156 14.74289062 -1.13539063 13.89984375 -1.13671875 13.03125 C-1.13285156 12.1546875 -1.12898438 11.278125 -1.125 10.375 C-1.12886719 9.49070312 -1.13273437 8.60640625 -1.13671875 7.6953125 C-1.13542969 6.85484375 -1.13414062 6.014375 -1.1328125 5.1484375 C-1.13168457 4.37677246 -1.13055664 3.60510742 -1.12939453 2.81005859 C-1 1 -1 1 0 0 Z " fill="#090909" transform="translate(449,644)"/>
<path d="M0 0 C1.98 0.495 1.98 0.495 4 1 C4.33 4.3 4.66 7.6 5 11 C8.96 11.33 12.92 11.66 17 12 C17 8.37 17 4.74 17 1 C18.32 0.67 19.64 0.34 21 0 C22 1 22 1 22.11352539 3.59204102 C22.10828857 4.71795654 22.10305176 5.84387207 22.09765625 7.00390625 C22.09443359 8.21884766 22.09121094 9.43378906 22.08789062 10.68554688 C22.07951172 11.96494141 22.07113281 13.24433594 22.0625 14.5625 C22.05798828 15.84576172 22.05347656 17.12902344 22.04882812 18.45117188 C22.03699545 21.63416022 22.02051068 24.81705762 22 28 C20.35 28 18.7 28 17 28 C17 24.04 17 20.08 17 16 C13.04 16.33 9.08 16.66 5 17 C4.67 20.63 4.34 24.26 4 28 C2.35 27.67 0.7 27.34 -1 27 C-1.02886537 22.68751391 -1.04675255 18.37505238 -1.0625 14.0625 C-1.07087891 12.83080078 -1.07925781 11.59910156 -1.08789062 10.33007812 C-1.09111328 9.16025391 -1.09433594 7.99042969 -1.09765625 6.78515625 C-1.10289307 5.70113525 -1.10812988 4.61711426 -1.11352539 3.50024414 C-1 1 -1 1 0 0 Z " fill="#060606" transform="translate(535,644)"/>
<path d="M0 0 C1.16015625 0.11794922 1.16015625 0.11794922 2.34375 0.23828125 C4.5 0.6875 4.5 0.6875 7.5 2.6875 C7.17 4.0075 6.84 5.3275 6.5 6.6875 C3.5 6.6875 3.5 6.6875 1.5 5.6875 C-0.49960012 5.647508 -2.50047242 5.64403201 -4.5 5.6875 C-4.5 6.6775 -4.5 7.6675 -4.5 8.6875 C-3.21802734 9.30238281 -3.21802734 9.30238281 -1.91015625 9.9296875 C-0.25306641 10.73792969 -0.25306641 10.73792969 1.4375 11.5625 C2.53964844 12.09617187 3.64179688 12.62984375 4.77734375 13.1796875 C7.5 14.6875 7.5 14.6875 8.5 16.6875 C9.0193604 20.582703 8.79481269 22.23545388 6.625 25.5625 C2.25772018 28.53225028 -1.36056981 28.613745 -6.5 27.6875 C-8.89828507 26.58532954 -10.45804886 25.4070378 -12.5 23.6875 C-11.18 22.3675 -9.86 21.0475 -8.5 19.6875 C-7.51 20.3475 -6.52 21.0075 -5.5 21.6875 C-3.44290404 21.92805468 -3.44290404 21.92805468 -1.3125 21.8125 C-0.054375 21.77125 1.20375 21.73 2.5 21.6875 C2.37671718 19.72965812 2.37671718 19.72965812 1.5 17.6875 C-0.71054257 16.47211566 -0.71054257 16.47211566 -3.375 15.6875 C-7.32527706 14.39761361 -9.41205816 13.36923745 -11.5 9.6875 C-11.36850006 6.46575143 -11.08842409 4.46314994 -9.125 1.875 C-6.06613565 -0.36032395 -3.6104975 -0.40317222 0 0 Z " fill="#060707" transform="translate(205.5,644.3125)"/>
</svg>
